<?xml version="1.0" standalone="no"?>
<!DOCTYPE svg PUBLIC "-//W3C//DTD SVG 1.1//EN" "http://www.w3.org/Graphics/SVG/1.1/DTD/svg11.dtd" >
<svg xmlns="http://www.w3.org/2000/svg" width="100%" height="100%">
<metadata>
Created by FontXChange 20100429 at Fri Oct  9 14:49:53 2015
 By Joe Burdick
Copyright 1988-1991 Adobe Systems Inc.
</metadata>
<defs>
<font id="HelveticaNeueLT-ThinItalic" horiz-adv-x="1139" >
  <font-face 
    font-family="HelveticaNeue LT 35 Thin"
    font-weight="400"
    font-style="italic"
    font-stretch="normal"
    units-per-em="2048"
    panose-1="2 11 4 4 2 0 2 9 2 3"
    ascent="1638"
    descent="-410"
    x-height="1053"
    cap-height="1462"
    bbox="-346 -438 2201 1898"
    underline-thickness="102"
    underline-position="-154"
    slope="-12"
    unicode-range="U+0020-FB02"
  />
<missing-glyph horiz-adv-x="1024" 
d="M905 16v1016h-786v-1016h786zM102 1049h820v-1049h-820v1049z" />
    <glyph glyph-name=".notdef" horiz-adv-x="1024" 
d="M905 16v1016h-786v-1016h786zM102 1049h820v-1049h-820v1049z" />
    <glyph glyph-name="space" unicode=" " horiz-adv-x="569" 
 />
    <glyph glyph-name="space" unicode="&#xa0;" horiz-adv-x="569" 
 />
    <glyph glyph-name="quotedbl" unicode="&#x22;" horiz-adv-x="645" 
d="M256 993h78v469h-78v-469zM498 993h77v469h-77v-469z" />
    <glyph glyph-name="numbersign" unicode="#" 
d="M381 962h-242l-10 -67h242l-49 -354h-240l-10 -68h239l-65 -473h67l66 473h346l-66 -473h68l66 473h227l10 68h-227l49 354h225l10 67h-225l64 451h-68l-63 -451h-347l64 451h-68zM438 895h346l-49 -354h-346z" />
    <glyph glyph-name="dollar" unicode="$" 
d="M588 700q131 -32 231 -98q47 -33 76 -82q27 -51 27 -123q-5 -180 -140 -266q-131 -88 -286 -88q-23 0 -41 2zM553 801q-59 18 -113 43q-53 22 -94 55q-41 35 -63 86q-27 49 -27 119q2 164 121 239q114 76 299 76zM733 1419q127 -10 213 -78q84 -67 86 -204q-4 -29 -4 -88
h78q4 53 4 77q-2 172 -100 260q-99 88 -263 105l33 160h-55l-31 -156q-20 2 -39 2q-196 0 -331 -96q-144 -101 -146 -318q0 -84 33 -145q29 -62 80 -100q49 -39 114 -66q64 -27 132 -49l-136 -670q-178 33 -254 125q-77 92 -75 203q0 67 6 108h-78q-6 -59 -6 -108
q-2 -137 84 -252t307 -156l-41 -194h55l39 188q27 0 51 -2q201 0 353 105q153 106 157 333q0 93 -30 156q-31 61 -86 100q-56 43 -127 72q-35 14 -72 27l-80 24z" />
    <glyph glyph-name="percent" unicode="%" horiz-adv-x="1554" 
d="M401 709q90 0 158 45q68 41 111 106q90 141 90 303q-6 270 -277 275q-172 -5 -266 -146q-98 -137 -98 -303q2 -278 282 -280zM391 776q-192 4 -194 201q0 135 69 260q37 59 92 98q52 35 125 35q197 -4 199 -205q0 -139 -68 -260q-34 -57 -90 -92q-55 -37 -133 -37z
M1069 43q-193 4 -195 201q0 135 70 260q37 59 92 98q51 35 125 35q197 -4 199 -205q0 -139 -68 -260q-35 -57 -90 -92q-55 -37 -133 -37zM1079 -25q90 2 158 45q67 41 110 107q91 141 91 303q-7 270 -277 274q-172 -4 -266 -145q-98 -137 -98 -303q2 -276 282 -281zM268 -70
l1090 1553h-84l-1090 -1553h84z" />
    <glyph glyph-name="ampersand" unicode="&#x26;" horiz-adv-x="1214" 
d="M504 737l307 -473q-72 -104 -176 -162q-103 -59 -207 -59q-137 0 -227 82q-92 78 -95 197q0 90 39 153q35 66 95 111q59 45 129 82zM860 332l-287 444q131 64 250 160q58 49 92 113q35 61 35 137q0 94 -69 172q-35 37 -91 59q-55 21 -129 21q-131 0 -227 -64
q-47 -35 -76 -90q-28 -57 -28 -139q0 -94 45 -180q43 -86 90 -166q-74 -35 -150 -78q-77 -43 -143 -94q-61 -52 -100 -123q-43 -74 -43 -174q0 -168 112 -258q109 -95 287 -97q141 2 244 66q104 59 182 160l129 -201h92l-170 264q88 131 137 332h-77q-11 -55 -39 -133
q-31 -78 -66 -131zM649 1370q101 -2 162 -55q59 -54 61 -142q0 -65 -32 -114q-33 -51 -86 -92q-50 -41 -107 -72q-59 -33 -113 -59q-43 69 -81 149q-45 76 -45 162q2 104 73 164q70 59 168 59z" />
    <glyph glyph-name="quotesingle" unicode="'" horiz-adv-x="418" 
d="M262 993h78v469h-78v-469z" />
    <glyph glyph-name="parenleft" unicode="(" horiz-adv-x="494" 
d="M571 1497q-475 -522 -479 -1225q0 -217 35 -374q29 -158 70 -275h67q-98 342 -94 608q4 725 469 1266h-68z" />
    <glyph glyph-name="parenright" unicode=")" horiz-adv-x="494" 
d="M-104 -377q473 522 479 1225q-2 221 -31 379q-33 157 -74 270h-67q98 -340 94 -608q-4 -725 -469 -1266h68z" />
    <glyph glyph-name="asterisk" unicode="*" horiz-adv-x="721" 
d="M387 1145l-188 -195l47 -41l188 203l148 -223l51 30l-139 211l260 76l-17 58l-256 -76l58 274h-60l-57 -270l-217 125l-35 -49z" />
    <glyph glyph-name="plus" unicode="+" horiz-adv-x="1229" 
d="M575 555h-477v-78h477v-477h78v477h477v78h-477v477h-78v-477z" />
    <glyph glyph-name="comma" unicode="," horiz-adv-x="569" 
d="M-25 -258q101 29 144 102q43 74 59 156l47 211h-102l-47 -211h37q-11 -57 -35 -113q-25 -57 -88 -77z" />
    <glyph glyph-name="hyphen" unicode="-" horiz-adv-x="721" 
d="M547 518l16 78h-444l-19 -78h447z" />
    <glyph glyph-name="hyphen" unicode="&#xad;" horiz-adv-x="721" 
d="M547 518l16 78h-444l-19 -78h447z" />
    <glyph glyph-name="period" unicode="." horiz-adv-x="569" 
d="M178 0l47 211h-102l-47 -211h102z" />
    <glyph glyph-name="slash" unicode="/" horiz-adv-x="682" 
d="M-39 -35l840 1532h-88l-840 -1532h88z" />
    <glyph glyph-name="zero" unicode="0" 
d="M446 43q-170 4 -241 135q-76 127 -74 281q0 358 145 628q72 131 175 207q100 76 229 76q186 -2 260 -119q72 -114 72 -295q2 -264 -123 -573q-68 -143 -174 -240q-109 -98 -269 -100zM463 -25q176 2 295 105q118 98 192 252q142 329 139 624q0 209 -94 342
q-98 138 -321 140q-168 -2 -287 -101q-119 -98 -192 -252q-144 -325 -142 -626q0 -84 19 -168q18 -84 63 -156q88 -153 328 -160z" />
    <glyph glyph-name="one" unicode="1" 
d="M291 1083q102 17 207 62q53 22 104 53q53 31 98 74l4 -4l-272 -1268h90l303 1413h-78q-96 -98 -200 -168q-105 -67 -242 -90z" />
    <glyph glyph-name="two" unicode="2" 
d="M905 68h-846q54 176 211 288q158 111 338 203q88 45 168 94t146 107q65 59 102 135t37 176q-2 176 -111 272q-110 95 -284 95q-222 -2 -347 -138q-127 -135 -139 -354h78q14 186 119 303q102 119 291 121q143 0 229 -82q84 -82 86 -221q-4 -182 -170 -297
q-78 -59 -178 -115l-207 -112q-170 -86 -303 -213q-135 -127 -158 -330h926z" />
    <glyph glyph-name="three" unicode="3" 
d="M272 989q31 164 129 272q97 107 265 109q139 0 231 -72q94 -73 96 -219q0 -100 -45 -162q-47 -61 -123 -94q-75 -28 -159 -41q-89 -10 -170 -10l-15 -68q189 3 301 -51q113 -59 115 -237q-2 -170 -123 -271q-119 -102 -297 -102q-366 4 -368 352q0 39 6 76h-78
q-6 -37 -6 -76q10 -413 432 -420q223 5 366 121q144 117 146 336q0 117 -60 201q-61 82 -174 102v4q148 15 238 109t92 244q-2 169 -121 260q-117 86 -278 86q-205 -2 -326 -125q-123 -123 -151 -324h77z" />
    <glyph glyph-name="four" unicode="4" 
d="M102 428l785 858h4l-189 -858h-600zM0 360h688l-76 -360h82l76 360h227l17 68h-230l211 985h-86l-893 -973z" />
    <glyph glyph-name="five" unicode="5" 
d="M129 696l84 -4q127 187 367 189q143 0 239 -95q96 -94 98 -258q-2 -196 -116 -336q-115 -145 -330 -149q-190 4 -272 104q-39 45 -58 95q-20 49 -20 90q-2 51 6 98h-78q-4 -22 -4 -49q-2 -27 -2 -68q6 -121 109 -225q102 -108 319 -113q242 5 383 164q139 160 141 404
q-2 198 -112 303q-113 102 -303 102q-99 0 -191 -41q-94 -41 -149 -110l-4 4l188 544h665l21 68h-733z" />
    <glyph glyph-name="six" unicode="6" 
d="M494 43q-168 2 -263 104q-100 99 -100 263q2 184 117 319q110 133 299 137q160 -2 260 -92t102 -256q0 -188 -106 -328q-105 -143 -309 -147zM1077 1055q-6 378 -385 383q-174 -2 -295 -101q-123 -98 -198 -252q-148 -325 -146 -628q0 -213 107 -344q106 -136 331 -138
q234 5 365 164q129 156 131 377q-2 191 -117 303q-112 113 -301 115q-282 -2 -413 -250l-4 4q20 102 59 221q37 117 96 219q62 107 152 174q92 66 221 68q317 0 319 -315h78z" />
    <glyph glyph-name="seven" unicode="7" 
d="M238 1345h808q-577 -585 -831 -1345h90q256 760 825 1335l19 78h-895z" />
    <glyph glyph-name="eight" unicode="8" 
d="M485 43q-155 0 -264 80q-112 80 -115 242q3 176 130 266q118 88 286 88q154 0 273 -68q118 -71 122 -233q-2 -185 -127 -279q-124 -96 -305 -96zM481 -25q199 2 355 113q155 109 159 315q-2 271 -258 342v5q148 16 240 110t94 244q-2 166 -121 252q-117 82 -276 82
q-185 0 -316 -95q-137 -98 -139 -294q0 -99 66 -175q61 -77 153 -104v-4q-178 -19 -291 -119q-116 -100 -118 -293q2 -190 139 -284q133 -95 313 -95zM674 1370q131 0 223 -63q94 -68 96 -203q-2 -162 -110 -240q-105 -78 -260 -78q-132 2 -226 68q-98 63 -100 203
q2 157 117 237q110 76 260 76z" />
    <glyph glyph-name="nine" unicode="9" 
d="M61 354q7 -368 385 -379q174 2 297 103q123 96 199 248q145 323 143 626q0 215 -102 348q-107 136 -336 138q-229 -5 -360 -164q-133 -158 -135 -381q2 -186 118 -297q115 -115 299 -117q281 4 424 254l4 -4q-43 -215 -166 -440q-63 -107 -155 -174q-92 -72 -217 -72
q-316 0 -320 311h-78zM645 1370q168 -2 266 -104q94 -103 97 -267q-3 -178 -115 -311q-113 -139 -301 -141q-156 0 -258 92q-103 90 -105 252q0 188 109 332q106 143 307 147z" />
    <glyph glyph-name="colon" unicode=":" horiz-adv-x="569" 
d="M367 842l47 211h-103l-47 -211h103zM178 0l47 211h-102l-47 -211h102z" />
    <glyph glyph-name="semicolon" unicode=";" horiz-adv-x="569" 
d="M-25 -258q101 29 144 102q43 74 59 156l47 211h-102l-47 -211h37q-11 -57 -35 -113q-25 -57 -88 -77zM367 842l47 211h-103l-47 -211h103z" />
    <glyph glyph-name="semicolon" unicode="&#x37e;" horiz-adv-x="569" 
d="M-25 -258q101 29 144 102q43 74 59 156l47 211h-102l-47 -211h37q-11 -57 -35 -113q-25 -57 -88 -77zM367 842l47 211h-103l-47 -211h103z" />
    <glyph glyph-name="less" unicode="&#x3c;" horiz-adv-x="1229" 
d="M1135 1053l-1041 -480v-106l1041 -483v86l-973 450l973 447v86z" />
    <glyph glyph-name="equal" unicode="=" horiz-adv-x="1229" 
d="M1130 756h-1032v-78h1032v78zM1130 358h-1032v-77h1032v77z" />
    <glyph glyph-name="greater" unicode="&#x3e;" horiz-adv-x="1229" 
d="M94 -16l1041 479v106l-1041 484v-86l973 -451l-973 -446v-86z" />
    <glyph glyph-name="question" unicode="?" horiz-adv-x="1063" 
d="M494 371q30 166 90 237q57 72 192 152q137 88 199 180q59 92 59 223q-2 170 -121 252q-116 82 -272 82q-219 -4 -336 -145q-117 -142 -137 -340h90q25 182 115 292q86 113 268 115q135 0 219 -67q82 -70 84 -209q-2 -103 -53 -170q-23 -35 -47 -60l-54 -49
q-47 -39 -108 -76q-62 -36 -121 -88q-59 -51 -100 -129q-43 -77 -58 -200h91zM317 0h103l47 211h-102z" />
    <glyph glyph-name="at" unicode="@" horiz-adv-x="1638" 
d="M870 1120q66 0 105 -26q37 -25 55 -64q19 -39 25 -80q4 -41 4 -71q-4 -189 -133 -379q-50 -70 -113 -115q-61 -47 -125 -47q-90 0 -147 70q-64 65 -64 180q2 176 111 348q53 82 125 133q71 51 157 51zM1247 1147h-84l-47 -146h-4q-12 76 -72 131q-59 54 -157 56
q-215 -6 -346 -197q-64 -88 -99 -194q-39 -109 -39 -220q0 -126 74 -212q70 -93 188 -95q172 0 275 146h4q4 -72 43 -109t92 -37q170 4 315 181q150 172 154 409q-4 285 -201 459q-194 176 -493 178q-316 -4 -531 -221q-221 -213 -225 -539q2 -327 219 -545
q213 -223 545 -227q430 8 653 379h-90q-205 -305 -563 -311q-266 2 -471 194q-211 191 -215 496q4 297 203 498q192 204 479 208q238 -2 422 -151q186 -150 190 -412q-4 -182 -112 -344q-52 -78 -117 -125q-68 -49 -139 -49q-33 0 -56 21q-24 18 -24 49q0 22 12 57
q10 35 21 66z" />
    <glyph glyph-name="A" unicode="A" horiz-adv-x="1251" 
d="M778 1372l148 -825h-645zM-152 0h103l282 469h707l84 -469h90l-272 1462h-95z" />
    <glyph glyph-name="B" unicode="B" horiz-adv-x="1290" 
d="M383 1384h450q74 0 136 -6q61 -8 108 -35q47 -24 72 -73q22 -52 22 -138q-2 -157 -114 -245q-113 -88 -310 -88h-489zM242 721h489q367 6 363 -275q0 -165 -115 -264q-115 -102 -328 -104h-547zM-2 0h653q291 4 414 147q65 66 92 144q27 76 27 149q-2 277 -273 320v4
q342 51 350 377q0 98 -28 161q-31 64 -88 99q-56 37 -133 51q-78 10 -170 10h-533z" />
    <glyph glyph-name="C" unicode="C" horiz-adv-x="1442" 
d="M1415 1012q4 221 -141 352q-146 131 -402 133q-389 -8 -589 -299q-203 -283 -203 -614q4 -340 184 -480q174 -141 402 -139q243 2 432 156q188 149 241 387h-90q-53 -199 -209 -330q-157 -133 -366 -135q-226 0 -361 135q-141 133 -143 399q0 324 186 578
q185 256 518 264q193 0 320 -102q125 -105 131 -305h90z" />
    <glyph glyph-name="D" unicode="D" horiz-adv-x="1403" 
d="M-2 0h539q382 8 583 281q199 264 201 591q12 584 -541 590h-473zM381 1384h379q258 0 366 -129q107 -129 105 -383q2 -272 -162 -524q-166 -262 -543 -270h-422z" />
    <glyph glyph-name="E" unicode="E" 
d="M-2 0h979l16 78h-889l136 643h804l15 78h-803l123 585h862l18 78h-954z" />
    <glyph glyph-name="F" unicode="F" horiz-adv-x="1063" 
d="M-2 0h90l150 721h743l14 78h-741l123 585h827l17 78h-918z" />
    <glyph glyph-name="G" unicode="G" horiz-adv-x="1517" 
d="M1436 1020q-17 250 -170 364q-156 113 -394 113q-389 -8 -589 -299q-203 -283 -203 -614q4 -340 184 -480q174 -141 402 -139q213 2 350 90q139 88 233 246h8l-67 -301h67l152 717h-614l-17 -78h537q-39 -221 -191 -401q-153 -189 -450 -195q-226 0 -361 135
q-141 133 -143 399q0 324 186 578q185 256 518 264q449 -2 471 -399h91z" />
    <glyph glyph-name="H" unicode="H" horiz-adv-x="1366" 
d="M-2 0h90l156 721h911l-156 -721h90l314 1462h-90l-142 -663h-911l141 663h-90z" />
    <glyph glyph-name="I" unicode="I" horiz-adv-x="379" 
d="M-2 0h90l309 1462h-90z" />
    <glyph glyph-name="J" unicode="J" horiz-adv-x="985" 
d="M707 432q-15 -78 -37 -145q-25 -68 -64 -125q-39 -53 -100 -84q-60 -35 -152 -35q-110 0 -198 57q-90 56 -93 176q0 50 7 95q6 45 14 90h-90q-19 -88 -21 -178q2 -158 107 -238q100 -80 248 -80q241 2 338 139q51 68 84 162q32 94 57 211l215 985h-90z" />
    <glyph glyph-name="K" unicode="K" horiz-adv-x="1251" 
d="M-2 0h90l109 520l346 273l526 -793h102l-563 844l787 618h-129l-1039 -823l-4 4l172 819h-90z" />
    <glyph glyph-name="L" unicode="L" horiz-adv-x="1024" 
d="M-2 0h915l17 78h-826l297 1384h-90z" />
    <glyph glyph-name="M" unicode="M" horiz-adv-x="1669" 
d="M-2 0h90l281 1372h4l280 -1372h88l871 1372h4l-309 -1372h90l317 1462h-133l-866 -1368h-4l-277 1368h-123z" />
    <glyph glyph-name="N" unicode="N" horiz-adv-x="1403" 
d="M-2 0h90l279 1372h4l645 -1372h104l318 1462h-91l-284 -1372h-4l-641 1372h-107z" />
    <glyph glyph-name="O" unicode="O" horiz-adv-x="1517" 
d="M170 588q2 342 192 583q189 242 508 248q250 -2 375 -153q123 -152 123 -394q-2 -309 -184 -561q-185 -262 -512 -268q-240 2 -371 152q-131 147 -131 393zM80 590q6 -610 602 -625q367 8 569 295q205 279 207 623q-6 600 -596 614q-360 -6 -567 -279
q-213 -268 -215 -628z" />
    <glyph glyph-name="P" unicode="P" horiz-adv-x="1214" 
d="M227 651h498q225 0 379 109q151 108 155 350q0 115 -36 184q-37 70 -105 107q-67 37 -158 51q-90 10 -194 10h-455l-313 -1462h90zM385 1384h356q86 0 164 -4q78 -6 137 -33q60 -26 95 -81q32 -58 32 -156q-2 -184 -118 -281q-119 -100 -295 -100h-512z" />
    <glyph glyph-name="Q" unicode="Q" horiz-adv-x="1517" 
d="M1057 184l-197 185l-53 -58l186 -174q-141 -94 -321 -94q-240 2 -371 152q-131 147 -131 393q2 342 192 583q189 242 508 248q250 -2 375 -153q123 -152 123 -394q0 -198 -80 -381q-80 -186 -231 -307zM1057 78l207 -193l53 58l-199 184q168 137 254 340t86 416
q-6 600 -596 614q-360 -6 -567 -279q-213 -268 -215 -628q6 -610 602 -625q217 2 375 113z" />
    <glyph glyph-name="R" unicode="R" horiz-adv-x="1290" 
d="M-2 0h88l143 666h404q168 2 260 -37q45 -21 69 -68q23 -45 23 -121q-4 -168 -6 -293q-2 -92 18 -147h90q-22 72 -22 145q6 142 10 299q0 215 -209 250v4q183 11 295 123q113 111 115 293q0 104 -35 174q-35 68 -94 107q-60 38 -135 53q-78 14 -164 14h-541zM381 1384h430
q174 2 274 -53q50 -31 76 -86q25 -57 25 -149q-2 -170 -119 -260q-115 -93 -291 -93h-530z" />
    <glyph glyph-name="S" unicode="S" horiz-adv-x="1290" 
d="M39 481q-2 -51 0 -102q2 -201 156 -305q147 -109 366 -109q244 0 399 111q158 108 162 319q0 92 -33 156q-32 63 -92 104q-118 82 -278 119q-37 12 -72 25q-37 8 -74 20q-71 25 -127 57q-55 37 -90 91q-37 51 -37 133q5 176 144 250q133 69 289 69q161 0 278 -69
q115 -74 119 -230q0 -24 -6 -76h90q6 50 6 84q-4 187 -143 279q-140 90 -342 90q-213 0 -365 -98q-156 -99 -160 -299q0 -99 39 -162q35 -64 94 -107q60 -41 132 -67q71 -27 139 -49l133 -39q70 -23 129 -60q59 -34 98 -90q39 -55 39 -135q-2 -184 -135 -266
q-133 -84 -332 -82q-231 2 -334 109q-51 49 -75 114q-27 62 -27 129q0 47 2 86h-92z" />
    <glyph glyph-name="T" unicode="T" horiz-adv-x="1063" 
d="M637 1384l-293 -1384h90l293 1384h508l16 78h-1122l-18 -78h526z" />
    <glyph glyph-name="U" unicode="U" horiz-adv-x="1366" 
d="M1401 1462h-90l-205 -958q-39 -209 -160 -332q-123 -127 -364 -129q-164 -2 -287 80q-127 80 -131 256q0 112 28 219l185 864h-90l-185 -864l-18 -100q-10 -58 -10 -105q2 -219 147 -323q141 -105 346 -105q283 0 428 135q148 131 201 402z" />
    <glyph glyph-name="V" unicode="V" horiz-adv-x="1175" 
d="M391 0h107l856 1462h-90l-807 -1372h-4l-215 1372h-91z" />
    <glyph glyph-name="W" unicode="W" horiz-adv-x="1857" 
d="M281 0h100l684 1372h4l111 -1372h100l725 1462h-92l-664 -1360h-4l-106 1360h-113l-676 -1360h-4l-96 1360h-90z" />
    <glyph glyph-name="X" unicode="X" 
d="M635 743l661 719h-98l-596 -649l-340 649h-90l375 -708l-694 -754h98l626 682l355 -682h90z" />
    <glyph glyph-name="Y" unicode="Y" 
d="M389 0h90l129 600l742 862h-113l-660 -774l-356 774h-90l391 -848z" />
    <glyph glyph-name="Z" unicode="Z" horiz-adv-x="1100" 
d="M-113 78l-16 -78h1108l14 78h-1001l1216 1306l17 78h-1028l-19 -78h930z" />
    <glyph glyph-name="bracketleft" unicode="[" horiz-adv-x="494" 
d="M250 -377l16 68h-205l369 1738h205l12 68h-280l-398 -1874h281z" />
    <glyph glyph-name="backslash" unicode="\" horiz-adv-x="682" 
d="M809 -35l-840 1532h-88l840 -1532h88z" />
    <glyph glyph-name="bracketright" unicode="]" horiz-adv-x="494" 
d="M195 1497l-17 -68h205l-369 -1738h-204l-13 -68h281l397 1874h-280z" />
    <glyph glyph-name="asciicircum" unicode="^" horiz-adv-x="1229" 
d="M1149 485l-479 928h-107l-483 -928h86l450 860l447 -860h86z" />
    <glyph glyph-name="underscore" unicode="_" horiz-adv-x="1024" 
d="M1024 -256v102h-1024v-102h1024z" />
    <glyph glyph-name="grave" unicode="`" horiz-adv-x="342" 
d="M162 1497l225 -287h76l-203 287h-98z" />
    <glyph glyph-name="a" unicode="a" horiz-adv-x="1024" 
d="M741 451q-41 -168 -139 -285q-98 -121 -287 -123q-106 -2 -184 49q-82 51 -84 166q0 88 37 139q35 51 90 76q59 27 129 35t143 8q74 6 177 23q49 8 90 22q41 12 61 33h4zM199 750q73 262 356 260q268 -5 264 -215q2 -117 -82 -160q-88 -45 -305 -51q-90 0 -170 -13
q-84 -14 -149 -51q-66 -33 -103 -96q-41 -64 -41 -166q2 -149 97 -215q92 -68 229 -68q108 0 221 54q111 51 176 163h4q-4 -18 -8 -45q-8 -26 -8 -43q0 -36 27 -69q24 -37 75 -39q43 0 90 10l13 70q-35 -13 -70 -13q-29 0 -41 21q-16 18 -16 47q0 51 26 152q13 47 25 96
l18 88q11 35 39 160q29 123 31 200q0 80 -33 131q-35 50 -88 76q-53 27 -106 35q-58 8 -99 8q-360 6 -452 -327h80z" />
    <glyph glyph-name="b" unicode="b" 
d="M-14 0h77l60 272h4q39 -133 131 -213q94 -82 229 -84q267 7 406 217q139 203 139 449q0 190 -90 311q-94 123 -301 125q-133 -2 -238 -65q-102 -66 -157 -164h-4l133 614h-78zM491 43q-75 0 -135 35q-61 31 -104 84q-88 112 -88 241q0 199 119 396q59 94 147 151
q86 58 201 60q164 -2 243 -103q80 -100 80 -264q0 -207 -112 -395q-58 -90 -144 -146q-90 -59 -207 -59z" />
    <glyph glyph-name="c" unicode="c" horiz-adv-x="1063" 
d="M844 344q-51 -135 -154 -217q-102 -84 -250 -84q-168 2 -243 119q-76 112 -76 268q0 213 133 393q129 180 358 187q289 -7 295 -285h78q8 162 -98 256q-105 94 -275 96q-258 -6 -411 -201q-156 -194 -158 -450q0 -197 96 -322q97 -127 309 -129q181 2 304 105
q120 98 178 264h-86z" />
    <glyph glyph-name="d" unicode="d" 
d="M442 43q-198 2 -268 113q-37 53 -51 116q-2 19 -6 37q-2 17 -6 31q-5 31 -5 65q0 213 132 404q127 194 376 201q140 -2 213 -97q76 -94 76 -215q0 -215 -115 -426q-57 -100 -143 -163q-88 -66 -203 -66zM1085 1462l-141 -663h-4q-14 133 -107 206q-92 72 -229 72
q-285 -6 -430 -223q-145 -213 -145 -465q0 -170 102 -289q98 -120 295 -125q281 7 399 265l4 -4l-55 -236h78l311 1462h-78z" />
    <glyph glyph-name="e" unicode="e" horiz-adv-x="1063" 
d="M958 516q15 76 15 156q0 180 -99 290q-98 113 -286 115q-260 -4 -408 -194q-151 -191 -151 -492q0 -172 102 -291q102 -120 301 -125q193 2 315 107q121 102 168 268h-77q-31 -123 -138 -213q-110 -92 -260 -94q-159 2 -245 109q-89 102 -89 249q0 62 11 115h841z
M129 584q37 174 150 299q110 125 294 127q166 -2 246 -101q76 -96 76 -237q0 -37 -10 -88h-756z" />
    <glyph glyph-name="f" unicode="f" horiz-adv-x="494" 
d="M74 1053l-15 -68h181l-209 -985h78l210 985h224l14 68h-223l18 82l27 98q12 47 33 88q24 41 63 65q39 25 102 25q43 -2 82 -10l15 67q-33 9 -111 11q-82 0 -133 -31t-82 -84q-31 -51 -45 -111q-16 -59 -29 -118l-18 -82h-182z" />
    <glyph glyph-name="g" unicode="g" horiz-adv-x="1100" 
d="M-27 -74q-2 -157 101 -241q100 -84 254 -86q247 2 362 118q115 115 156 332l217 1004h-78l-59 -269h-4q-7 135 -107 213t-246 80q-247 -6 -381 -192q-137 -183 -137 -418q0 -193 98 -307q95 -119 291 -121q250 2 371 219h4l-47 -209q-18 -80 -45 -147q-27 -70 -76 -123
q-45 -51 -121 -80q-75 -31 -186 -33q-127 0 -207 68q-82 63 -82 192h-78zM571 1010q47 0 101 -15q53 -14 100 -55q51 -39 82 -102q29 -66 31 -164q0 -197 -107 -375q-53 -84 -133 -137q-80 -56 -188 -56q-330 7 -328 367q0 201 117 365q114 167 325 172z" />
    <glyph glyph-name="h" unicode="h" horiz-adv-x="1063" 
d="M-14 0h77l105 496q37 188 156 346q59 75 139 123q78 45 176 45q121 -2 184 -62q64 -59 64 -164q0 -49 -11 -112q-12 -64 -20 -99l-129 -573h78l129 575q10 41 20 107q11 63 11 104q-3 140 -89 215q-86 76 -210 76q-285 -8 -424 -246h-4l135 631h-78z" />
    <glyph glyph-name="i" unicode="i" horiz-adv-x="342" 
d="M-14 0h77l220 1053h-78zM248 1251h78l43 211h-78z" />
    <glyph glyph-name="j" unicode="j" horiz-adv-x="342" 
d="M-29 -78l-16 -84q-10 -39 -29 -73q-16 -35 -47 -54q-31 -18 -76 -20q-43 2 -81 8l-15 -70q41 -6 84 -6q86 2 135 33t72 78q25 47 35 98l14 84l236 1137h-78zM248 1251h78l43 211h-78z" />
    <glyph glyph-name="k" unicode="k" horiz-adv-x="948" 
d="M-14 0h77l82 389l250 195l344 -584h99l-377 633l534 420h-116l-707 -562l-4 5l209 966h-78z" />
    <glyph glyph-name="l" unicode="l" horiz-adv-x="342" 
d="M-14 0h77l306 1462h-78z" />
    <glyph glyph-name="m" unicode="m" horiz-adv-x="1630" 
d="M-14 0h77l113 522q35 164 143 320q56 75 125 123q68 45 152 45q201 -2 205 -209q-2 -109 -23 -201l-129 -600h78l129 600q35 143 143 272q54 64 115 101q59 35 125 37q92 0 164 -43q69 -45 71 -158q0 -53 -10 -105q-10 -53 -18 -84l-133 -620h77l134 625q26 106 28 200
q-2 123 -86 189q-84 63 -198 63q-127 -2 -228 -74q-102 -71 -155 -188h-6q-3 258 -259 262q-126 -2 -219 -72q-94 -69 -153 -176l-4 4l47 220h-78z" />
    <glyph glyph-name="n" unicode="n" horiz-adv-x="1063" 
d="M-14 0h77l105 496q37 188 156 346q59 75 139 123q78 45 176 45q121 -2 184 -62q64 -59 64 -164q0 -49 -11 -112q-12 -64 -20 -99l-129 -573h78l129 575q10 41 20 107q11 63 11 104q-3 140 -89 215q-86 76 -210 76q-287 -6 -426 -254h-4l51 230h-78z" />
    <glyph glyph-name="o" unicode="o" horiz-adv-x="1100" 
d="M612 1010q322 -23 322 -349q0 -217 -121 -411q-61 -90 -149 -148q-93 -59 -216 -59q-178 2 -260 113q-82 108 -82 268q0 221 134 401q131 180 372 185zM596 1077q-268 -6 -416 -209q-151 -198 -151 -450q0 -203 106 -320q105 -121 316 -123q280 7 421 226
q140 211 140 463q-9 407 -416 413z" />
    <glyph glyph-name="p" unicode="p" 
d="M-98 -377h78l143 649h4q39 -133 131 -213q94 -82 229 -84q267 7 406 217q139 203 139 449q0 190 -90 311q-94 123 -301 125q-133 -2 -238 -65q-102 -66 -157 -164h-4l45 205h-78zM491 43q-75 0 -135 35q-61 31 -104 84q-88 112 -88 241q0 199 119 396q59 94 147 151
q86 58 201 60q164 -2 243 -103q80 -100 80 -264q0 -207 -112 -395q-58 -90 -144 -146q-90 -59 -207 -59z" />
    <glyph glyph-name="q" unicode="q" 
d="M442 43q-198 2 -268 113q-37 53 -51 116q-2 19 -6 37q-2 17 -6 31q-5 31 -5 65q0 213 132 404q127 194 376 201q140 -2 213 -97q76 -94 76 -215q0 -215 -115 -426q-57 -100 -143 -163q-88 -66 -203 -66zM1075 1053h-78l-53 -254h-4q-14 133 -107 206q-92 72 -229 72
q-285 -6 -430 -223q-145 -213 -145 -465q0 -170 102 -289q98 -120 295 -125q281 7 399 265l4 -4l-137 -613h78z" />
    <glyph glyph-name="r" unicode="r" horiz-adv-x="569" 
d="M-27 0h78l92 426q19 86 52 182q32 99 84 187q51 90 131 147q79 57 192 57q31 0 64 -8l22 82q-33 4 -65 4q-142 -2 -240 -78q-98 -75 -158 -198h-4l58 252h-78z" />
    <glyph glyph-name="s" unicode="s" horiz-adv-x="948" 
d="M-4 358q-2 -36 -2 -67q2 -172 119 -244q114 -72 284 -72q154 0 271 80q116 80 120 236q-2 123 -88 184q-41 31 -94 53q-53 21 -108 39q-54 19 -103 39q-53 21 -96 47q-41 27 -66 64q-26 35 -26 84q0 61 31 102q28 39 71 64q43 24 96 34q50 9 97 9q121 0 200 -52
q80 -51 82 -155q0 -31 -4 -68h78q4 47 4 78q-2 131 -106 199q-103 65 -254 65q-137 0 -252 -65q-119 -70 -121 -219q2 -125 90 -185q41 -31 94 -51q49 -25 103 -43q55 -16 108 -35q51 -20 94 -49q43 -27 68 -65q25 -39 25 -97q0 -51 -27 -92q-25 -43 -70 -74
q-92 -59 -186 -59q-164 -2 -258 61q-98 60 -98 205q0 25 2 49h-78z" />
    <glyph glyph-name="t" unicode="t" horiz-adv-x="530" 
d="M39 985h199l-160 -727q-15 -53 -17 -100q-4 -156 172 -158q80 4 127 6l15 68q-58 -6 -117 -6q-121 0 -119 88q0 18 8 51q5 33 9 45l159 733h222l16 68h-225l71 329h-77l-72 -329h-195z" />
    <glyph glyph-name="u" unicode="u" horiz-adv-x="1063" 
d="M997 1053h-78l-104 -496q-37 -186 -151 -344q-58 -76 -136 -121q-75 -49 -172 -49q-116 0 -182 66q-65 59 -65 159q0 49 14 115q10 65 16 96l129 574h-78l-129 -576q-8 -37 -18 -102q-12 -66 -12 -109q2 -135 90 -211q86 -78 209 -80q157 2 252 68q96 66 159 182l4 -4
l-49 -221h78z" />
    <glyph glyph-name="v" unicode="v" horiz-adv-x="872" 
d="M240 0h94l600 1053h-92l-539 -963h-4l-158 963h-86z" />
    <glyph glyph-name="w" unicode="w" horiz-adv-x="1442" 
d="M176 0h96l494 954h4l94 -954h94l562 1053h-91l-495 -963h-4l-97 963h-104l-487 -963h-4l-105 963h-78z" />
    <glyph glyph-name="x" unicode="x" horiz-adv-x="872" 
d="M420 606l-230 447h-96l264 -500l-512 -553h105l446 485l260 -485h95l-291 543l467 510h-103z" />
    <glyph glyph-name="y" unicode="y" horiz-adv-x="872" 
d="M-137 -371q33 -4 84 -6q110 2 174 51q61 50 110 142l715 1237h-92l-537 -949l-176 949h-90l207 -1053l-102 -164q-35 -59 -80 -102q-47 -41 -123 -43q-35 0 -74 6z" />
    <glyph glyph-name="z" unicode="z" horiz-adv-x="872" 
d="M-104 0h813l16 78h-715l887 897l20 78h-780l-18 -78h671l-880 -897z" />
    <glyph glyph-name="braceleft" unicode="{" horiz-adv-x="682" 
d="M799 1497h-103q-86 2 -143 -49q-59 -53 -88 -193l-66 -323q-24 -127 -75 -225q-25 -46 -60 -74q-37 -31 -82 -35l-16 -78q55 -2 80 -43q20 -41 20 -110q-2 -82 -22 -177l-68 -325q-12 -57 -12 -109q0 -71 39 -102q37 -31 104 -31h103l14 68h-100q-82 -2 -82 82
q0 55 18 129l68 321q16 80 16 144q0 55 -10 92q-10 35 -27 55q-16 23 -28 31q-15 8 -25 14q12 8 41 25q29 14 59 51q33 37 64 100q28 62 51 162l68 321q22 115 57 166q33 45 92 45h98z" />
    <glyph glyph-name="bar" unicode="|" horiz-adv-x="455" 
d="M188 -438h78v2048h-78v-2048z" />
    <glyph glyph-name="braceright" unicode="}" horiz-adv-x="682" 
d="M-158 -377h103q86 0 145 53q59 54 86 189l66 323q24 131 77 228q29 47 62 75q35 29 78 29l16 78q-55 4 -76 47q-24 43 -24 109q0 82 22 176l68 325q10 58 12 109q0 76 -37 104q-37 29 -106 29h-103l-14 -68h100q82 2 82 -82q-2 -55 -18 -129l-68 -321q-16 -80 -16 -143
q0 -56 14 -88q11 -33 25 -56q35 -39 51 -51q-12 -6 -37 -20q-28 -15 -59 -52q-31 -32 -64 -96q-32 -63 -55 -168l-68 -321q-22 -115 -55 -162q-31 -49 -94 -49h-98z" />
    <glyph glyph-name="asciitilde" unicode="~" horiz-adv-x="1229" 
d="M1024 639q-25 -51 -76 -100q-49 -52 -112 -54q-64 0 -115 29l-94 45q-66 31 -117 49q-51 17 -111 17q-90 0 -147 -45q-55 -43 -103 -125l60 -62q20 53 67 103q48 49 136 51q43 0 98 -21q55 -20 90 -41q129 -75 233 -77q89 2 150 57q31 26 55 57q25 29 43 60z" />
    <glyph glyph-name="Euro" 
d="M1155 1174q-12 32 -38.5 70.5t-82.5 72.5q-59 35 -118 44t-111 9q-32 0 -72 -4t-83.5 -16t-89.5 -35t-91 -62q-47 -40 -83.5 -90t-63.5 -101t-45.5 -99t-28.5 -82h737l-39 -68h-717q-12 -45 -20.5 -94t-13.5 -103h645l-39 -67h-613q-2 -25 -2 -63t5 -82.5t16.5 -92
t34.5 -90.5q32 -62 74.5 -97.5t87 -53.5t85.5 -22.5t70 -4.5q121 0 221.5 39t182.5 121l-17 -101q-32 -27 -69.5 -48t-85.5 -38q-59 -20 -123.5 -30.5t-124.5 -10.5q-42 0 -92 7t-99.5 29t-96 61t-81.5 104q-26 47 -40 98t-20 100.5t-6 94.5t3 80h-152l39 67h119
q9 103 35 197h-146l39 68h125q10 35 30.5 90.5t53.5 117t79.5 123t108.5 109.5q48 36 97 59t96.5 35.5t91.5 17.5t82 5q26 0 57 -2t64 -8t67.5 -17t67.5 -29q32 -18 69 -49t66 -82z" />
    <glyph glyph-name="Euro" unicode="&#x20ac;" 
d="M1155 1174q-12 32 -38.5 70.5t-82.5 72.5q-59 35 -118 44t-111 9q-32 0 -72 -4t-83.5 -16t-89.5 -35t-91 -62q-47 -40 -83.5 -90t-63.5 -101t-45.5 -99t-28.5 -82h737l-39 -68h-717q-12 -45 -20.5 -94t-13.5 -103h645l-39 -67h-613q-2 -25 -2 -63t5 -82.5t16.5 -92
t34.5 -90.5q32 -62 74.5 -97.5t87 -53.5t85.5 -22.5t70 -4.5q121 0 221.5 39t182.5 121l-17 -101q-32 -27 -69.5 -48t-85.5 -38q-59 -20 -123.5 -30.5t-124.5 -10.5q-42 0 -92 7t-99.5 29t-96 61t-81.5 104q-26 47 -40 98t-20 100.5t-6 94.5t3 80h-152l39 67h119
q9 103 35 197h-146l39 68h125q10 35 30.5 90.5t53.5 117t79.5 123t108.5 109.5q48 36 97 59t96.5 35.5t91.5 17.5t82 5q26 0 57 -2t64 -8t67.5 -17t67.5 -29q32 -18 69 -49t66 -82z" />
    <glyph glyph-name="quotesinglbase" unicode="&#x201a;" horiz-adv-x="418" 
d="M59 211l-45 -211h35q-10 -57 -35 -113q-24 -57 -88 -77l-14 -68q100 29 147 102q45 74 58 156l45 211h-103z" />
    <glyph glyph-name="florin" unicode="&#x192;" 
d="M289 811h221l-209 -784q-12 -56 -31 -111q-16 -55 -47 -106q-31 -48 -76 -76q-45 -31 -112 -33q-35 0 -76 12l-20 -78q32 -10 96 -12q88 0 149 35q58 31 97 86q38 55 65 129q25 72 45 154l209 784h242l18 68h-244l45 188q23 86 43 154q21 65 52 108q57 90 190 90
q43 -2 84 -10l21 76q-52 10 -103 12q-184 -2 -262 -123q-39 -57 -66 -135l-24 -82l-25 -90l-45 -188h-219z" />
    <glyph glyph-name="quotedblbase" unicode="&#x201e;" horiz-adv-x="645" 
d="M43 211l-45 -211h35q-10 -57 -35 -113q-25 -57 -88 -77l-14 -68q100 29 147 102q45 74 57 156l45 211h-102zM301 211l-45 -211h35q-10 -57 -35 -113q-25 -57 -88 -77l-14 -68q100 29 147 102q45 74 57 156l45 211h-102z" />
    <glyph glyph-name="ellipsis" unicode="&#x2026;" horiz-adv-x="2048" 
d="M152 0h102l47 211h-102zM833 0h103l47 211h-102zM1515 0h103l47 211h-102z" />
    <glyph glyph-name="dagger" unicode="&#x2020;" 
d="M770 1462h-78l-88 -409h-420l-14 -68h420l-273 -1284h78l273 1284h419l15 68h-420z" />
    <glyph glyph-name="daggerdbl" unicode="&#x2021;" 
d="M403 111l-86 -410h78l86 410h420l14 67h-419l172 807h419l15 68h-420l88 409h-78l-88 -409h-420l-14 -68h420l-172 -807h-420l-14 -67h419z" />
    <glyph glyph-name="circumflex" unicode="&#x2c6;" horiz-adv-x="342" 
d="M356 1446l146 -236h86l-180 287h-95l-272 -287h90z" />
    <glyph glyph-name="perthousand" unicode="&#x2030;" horiz-adv-x="2163" 
d="M383 813q-100 0 -145 61q-48 60 -48 154q0 139 72 240q70 100 205 102q102 -2 147 -61q43 -62 43 -150q0 -127 -67 -231q-72 -113 -207 -115zM117 -70h84l1089 1553h-84zM379 745q168 2 262 134q94 124 94 282q0 123 -65 199q-64 76 -191 78q-176 -5 -268 -131
q-98 -125 -98 -295q6 -260 266 -267zM967 -25q168 5 262 134q94 124 94 282q0 123 -66 199q-63 76 -190 78q-176 -4 -268 -131q-99 -125 -99 -295q7 -260 267 -267zM971 43q-101 0 -146 61q-47 60 -47 154q0 139 72 240q69 100 205 102q102 -2 147 -61q43 -62 43 -150
q0 -127 -67 -231q-72 -113 -207 -115zM1694 -25q167 5 262 134q94 124 94 282q0 123 -66 199q-63 76 -190 78q-176 -4 -268 -131q-99 -125 -99 -295q6 -260 267 -267zM1698 43q-101 0 -146 61q-47 60 -47 154q0 139 72 240q69 100 205 102q102 -2 147 -61q43 -62 43 -150
q0 -127 -67 -231q-72 -113 -207 -115z" />
    <glyph glyph-name="Scaron" unicode="&#x160;" horiz-adv-x="1290" 
d="M39 481q-2 -51 0 -102q2 -201 156 -305q147 -109 366 -109q244 0 399 111q158 108 162 319q0 92 -33 156q-32 63 -92 104q-118 82 -278 119q-37 12 -72 25q-37 8 -74 20q-71 25 -127 57q-55 37 -90 91q-37 51 -37 133q5 176 144 250q133 69 289 69q161 0 278 -69
q115 -74 119 -230q0 -24 -6 -76h90q6 50 6 84q-4 187 -143 279q-140 90 -342 90q-213 0 -365 -98q-156 -99 -160 -299q0 -99 39 -162q35 -64 94 -107q60 -41 132 -67q71 -27 139 -49l133 -39q70 -23 129 -60q59 -34 98 -90q39 -55 39 -135q-2 -184 -135 -266
q-133 -84 -332 -82q-231 2 -334 109q-51 49 -75 114q-27 62 -27 129q0 47 2 86h-92zM1140 1851h-90l-225 -236l-146 236h-86l181 -287h94z" />
    <glyph glyph-name="guilsinglleft" unicode="&#x2039;" horiz-adv-x="530" 
d="M403 866l-301 -270l-18 -78l186 -270l23 100l-144 199l232 215z" />
    <glyph glyph-name="OE" unicode="&#x152;" horiz-adv-x="2087" 
d="M1104 381q-10 -59 -41 -119q-31 -59 -82 -108q-102 -109 -309 -111q-240 2 -371 152q-131 147 -131 393q2 342 192 583q189 242 508 248q101 0 211 -49q107 -49 164 -152q21 -32 21 -73q-5 -37 -15 -78zM1298 1270h-4q-30 61 -78 104q-49 43 -108 70q-59 28 -121 41
q-61 12 -125 12q-360 -6 -567 -279q-213 -268 -215 -628q6 -610 602 -625q111 0 207 45q98 43 164 135h4l-31 -145h895l16 78h-805l132 643h722l15 78h-721l129 585h776l16 78h-864z" />
    <glyph glyph-name="quoteleft" unicode="&#x2018;" horiz-adv-x="418" 
d="M209 993h102l47 211h-36q10 31 18 62q8 28 20 53q25 55 84 76l15 67q-49 -12 -82 -37q-35 -26 -60 -61q-45 -74 -61 -160z" />
    <glyph glyph-name="quoteright" unicode="&#x2019;" horiz-adv-x="418" 
d="M428 1462h-102l-47 -211h36q-10 -57 -34 -112q-25 -58 -89 -78l-14 -68q101 29 144 103q43 73 59 155z" />
    <glyph glyph-name="quotedblleft" unicode="&#x201c;" horiz-adv-x="645" 
d="M281 993l47 211h-37q10 31 18 62q8 28 21 53q24 55 84 76l14 67q-49 -12 -82 -37q-35 -26 -59 -61q-45 -74 -62 -160l-47 -211h103zM539 993l47 211h-37q10 31 18 62q8 28 21 53q24 55 84 76l14 67q-49 -12 -82 -37q-35 -26 -59 -61q-45 -74 -62 -160l-47 -211h103z" />
    <glyph glyph-name="quotedblright" unicode="&#x201d;" horiz-adv-x="645" 
d="M326 1462l-45 -211h34q-10 -57 -34 -112q-25 -58 -89 -78l-14 -68q101 29 148 103q45 73 57 155l45 211h-102zM584 1462l-45 -211h34q-10 -57 -34 -112q-25 -58 -88 -78l-15 -68q101 29 148 103q45 73 57 155l45 211h-102z" />
    <glyph glyph-name="bullet" unicode="&#x2022;" horiz-adv-x="1024" 
d="M147 731q2 -156 109 -258q102 -106 256 -108q158 2 260 108q104 102 107 258q-3 158 -107 260q-102 103 -260 105q-154 -2 -256 -105q-107 -102 -109 -260z" />
    <glyph glyph-name="endash" unicode="&#x2013;" horiz-adv-x="1024" 
d="M999 518l17 78h-1024l-17 -78h1024z" />
    <glyph glyph-name="emdash" unicode="&#x2014;" horiz-adv-x="2048" 
d="M1773 596h-1515l-16 -78h1515z" />
    <glyph glyph-name="tilde" unicode="&#x2dc;" horiz-adv-x="342" 
d="M586 1413q-11 -35 -35 -72q-12 -16 -29 -26q-18 -15 -39 -15q-67 2 -133 60q-33 22 -67 41q-33 16 -74 16q-70 -2 -113 -57q-43 -56 -55 -123h59q11 39 37 76q29 34 68 37q26 0 57 -17q31 -18 66 -41q34 -22 71 -39q37 -20 74 -20q74 2 117 59q43 53 55 121h-59z" />
    <glyph glyph-name="trademark" unicode="&#x2122;" horiz-adv-x="2027" 
d="M827 1462h-653v-67h295v-777h65v777h293v67zM1421 754l-311 708h-121v-844h66v777h6l342 -777h37l342 777h6v-777h65v844h-121z" />
    <glyph glyph-name="scaron" unicode="&#x161;" horiz-adv-x="948" 
d="M-4 358q-2 -36 -2 -67q2 -172 119 -244q114 -72 284 -72q154 0 271 80q116 80 120 236q-2 123 -88 184q-41 31 -94 53q-53 21 -108 39q-54 19 -103 39q-53 21 -96 47q-41 27 -66 64q-26 35 -26 84q0 61 31 102q28 39 71 64q43 24 96 34q50 9 97 9q121 0 200 -52
q80 -51 82 -155q0 -31 -4 -68h78q4 47 4 78q-2 131 -106 199q-103 65 -254 65q-137 0 -252 -65q-119 -70 -121 -219q2 -125 90 -185q41 -31 94 -51q49 -25 103 -43q55 -16 108 -35q51 -20 94 -49q43 -27 68 -65q25 -39 25 -97q0 -51 -27 -92q-25 -43 -70 -74
q-92 -59 -186 -59q-164 -2 -258 61q-98 60 -98 205q0 25 2 49h-78zM908 1497h-90l-225 -236l-146 236h-86l181 -287h94z" />
    <glyph glyph-name="guilsinglright" unicode="&#x203a;" horiz-adv-x="530" 
d="M63 248l302 270l18 78l-186 270l-23 -100l143 -199l-231 -215z" />
    <glyph glyph-name="oe" unicode="&#x153;" horiz-adv-x="1821" 
d="M944 584q41 172 148 297q102 124 284 129q150 -2 223 -103q72 -98 72 -235q0 -37 -8 -88h-719zM1730 516q19 86 19 162q0 176 -96 287q-99 110 -285 112q-154 -2 -266 -98q-117 -96 -166 -240h-4q-2 156 -99 246q-94 90 -249 92q-136 -2 -238 -61q-104 -64 -174 -166
q-143 -215 -143 -469q0 -162 96 -281q92 -120 276 -125q328 5 443 334h4q45 -329 373 -334q180 2 301 107q120 100 167 268h-77q-43 -133 -140 -219q-96 -88 -241 -88q-152 0 -232 94q-84 88 -84 230q-2 63 15 149h800zM577 1010q150 -2 220 -93q67 -90 67 -231
q0 -207 -102 -416q-51 -98 -135 -161q-86 -66 -205 -66q-162 2 -238 106q-78 103 -78 248q0 211 121 406q60 94 148 149q86 58 202 58z" />
    <glyph glyph-name="Ydieresis" unicode="&#x178;" 
d="M389 0h90l129 600l742 862h-113l-660 -774l-356 774h-90l391 -848zM857 1570h91l38 211h-90zM532 1570h90l39 211h-90z" />
    <glyph glyph-name="exclamdown" unicode="&#xa1;" horiz-adv-x="418" 
d="M289 885l47 211h-103l-47 -211h103zM180 711l-147 -637l-96 -451h86l96 451l121 637h-60z" />
    <glyph glyph-name="cent" unicode="&#xa2;" 
d="M412 49q-131 29 -193 133q-61 103 -61 234q0 104 32 207q31 102 91 186q59 84 145 141q84 55 190 66zM1022 733q-25 330 -334 344l37 180h-55l-39 -180q-254 -20 -400 -211q-149 -190 -151 -440q0 -178 76 -295q75 -119 241 -147l-45 -222h56l45 215q28 -2 55 -2
q317 7 459 361h-86q-31 -80 -74 -135q-43 -56 -94 -90q-101 -70 -199 -68q-25 0 -47 2l207 965q264 -21 270 -277h78z" />
    <glyph glyph-name="sterling" unicode="&#xa3;" 
d="M80 676h192q21 -80 21 -180q0 -66 -29 -127q-33 -64 -80 -123q-102 -119 -202 -203l34 -78q50 39 115 64q64 26 123 26q106 -2 209 -43q51 -16 104 -28q53 -17 117 -19q164 -2 307 164l-39 66q-49 -66 -116 -107q-68 -45 -152 -45q-51 0 -98 16q-49 13 -99 29
q-45 16 -94 31q-49 14 -106 14q-99 -2 -174 -49l-4 4q100 80 180 191q80 108 82 239q-2 94 -21 158h303l15 67h-334q-64 144 -66 303q2 172 113 273q106 98 272 100q162 0 262 -69q97 -76 105 -252q-4 -49 -4 -88h78q4 47 4 90q-6 200 -125 299q-117 98 -293 98
q-195 0 -336 -111q-149 -110 -154 -327q2 -160 66 -316h-166z" />
    <glyph glyph-name="currency" unicode="&#xa4;" 
d="M1008 213l55 55l-111 111q125 145 125 328q0 182 -125 329l113 111l-55 55l-111 -113q-149 125 -332 125q-180 -2 -327 -122l-115 114l-55 -55l116 -115q-125 -147 -125 -329q2 -181 125 -330l-114 -113l55 -55l113 115q147 -125 327 -125q183 0 332 125zM569 276
q-174 3 -293 127q-122 121 -124 304q2 184 124 305q119 123 293 125q174 -2 295 -125q121 -121 123 -305q-2 -183 -123 -304q-121 -124 -295 -127z" />
    <glyph glyph-name="yen" unicode="&#xa5;" 
d="M190 405h265l-88 -405h88l88 405h311l14 68h-309l31 147l10 13h283l14 67h-246l590 762h-102l-580 -753l-260 753h-94l276 -762h-250l-14 -67h287l-35 -160h-264z" />
    <glyph glyph-name="brokenbar" unicode="&#xa6;" horiz-adv-x="455" 
d="M188 -182h78v512h-78v-512zM188 842h78v512h-78v-512z" />
    <glyph glyph-name="section" unicode="&#xa7;" 
d="M199 715q0 69 28 118q27 48 64 74q39 29 80 41q37 12 65 12l291 -280q57 -49 100 -117q43 -67 45 -149q0 -68 -26 -113q-27 -45 -68 -72q-41 -26 -80 -39q-41 -12 -65 -16l-271 262q-55 55 -106 127q-25 37 -41 76q-16 37 -16 76zM993 1102q2 45 2 84q-8 315 -317 311
q-133 0 -227 -72q-101 -71 -103 -237q0 -94 53 -170q-118 -19 -196 -101q-82 -81 -84 -206q0 -95 51 -166q49 -72 113 -135l147 -142q80 -82 111 -110q49 -41 84 -97q32 -55 34 -129q-2 -129 -86 -186q-81 -55 -178 -55q-80 2 -131 26q-55 23 -86 60q-31 39 -43 82
q-14 41 -14 78q0 65 2 83h-78q-2 -43 -2 -83q2 -148 98 -230q95 -82 250 -84q139 0 242 76q102 76 104 244q-2 98 -65 174q119 18 198 96q80 74 78 201q0 57 -16 106q-17 49 -43 88q-25 41 -53 72q-31 31 -54 51l-278 264q-25 31 -51 80q-29 47 -29 107q2 133 78 192
q73 55 178 55q80 0 127 -22q45 -25 70 -64q24 -36 32 -82q6 -47 6 -88q0 -43 -2 -71h78z" />
    <glyph glyph-name="dieresis" unicode="&#xa8;" horiz-adv-x="342" 
d="M446 1216h91l38 211h-90zM121 1216h90l39 211h-90z" />
    <glyph glyph-name="copyright" unicode="&#xa9;" horiz-adv-x="1638" 
d="M821 1429q301 -4 492 -200q192 -195 194 -496q-4 -295 -194 -493q-191 -203 -492 -207q-299 4 -489 205q-199 196 -201 495q2 301 199 496q190 196 491 200zM1227 897q-21 154 -129 238q-109 79 -262 79q-213 -2 -332 -133q-125 -133 -125 -348q2 -209 129 -346
q123 -139 334 -141q151 0 258 92q104 88 127 237h-78q-27 -116 -105 -186q-75 -76 -202 -76q-181 2 -281 127q-104 119 -104 295q0 182 100 297q98 113 281 115q251 -4 311 -250h78zM53 731q4 -323 226 -541q217 -221 540 -225q328 4 545 225q217 218 221 541
q-4 328 -221 545t-545 221q-323 -4 -540 -221q-222 -217 -226 -545z" />
    <glyph glyph-name="ordfeminine" unicode="&#xaa;" horiz-adv-x="614" 
d="M539 1051q-25 -99 -88 -170q-66 -74 -185 -76q-65 0 -114 28q-54 31 -56 103q0 49 27 80q24 30 65 45q41 14 84 20q43 4 80 4q45 0 111 13q33 6 57 16q25 10 37 25l4 -4zM195 1231q49 151 227 151q86 0 125 -32q37 -35 37 -93q0 -63 -54 -88q-55 -26 -198 -28
q-56 0 -109 -6q-53 -9 -96 -31q-43 -21 -68 -64q-28 -45 -28 -114q0 -95 65 -136q62 -40 162 -40q70 0 143 34q70 33 107 101l4 -4q-4 -19 -4 -48q0 -22 16 -43q17 -22 49 -22q29 -2 60 6l8 55q-23 -6 -45 -6q-39 0 -37 45q0 31 18 92q17 60 27 111l25 96q18 72 20 119
q-4 94 -80 125q-35 16 -69 22q-35 5 -64 5q-252 4 -307 -207h66z" />
    <glyph glyph-name="guillemotleft" unicode="&#xab;" horiz-adv-x="797" 
d="M666 866l-301 -270l-19 -78l186 -270l23 100l-143 199l231 215zM403 866l-301 -270l-18 -78l186 -270l23 100l-144 199l232 215z" />
    <glyph glyph-name="logicalnot" unicode="&#xac;" horiz-adv-x="1229" 
d="M1053 221h77v535h-1032v-78h955v-457z" />
    <glyph glyph-name="registered" unicode="&#xae;" horiz-adv-x="1638" 
d="M541 279h77v417h236l272 -417h86l-270 415q100 17 168 74q63 57 65 166q3 248 -294 250h-340v-905zM618 1116h250q86 0 158 -37q70 -41 72 -143q0 -57 -25 -90q-24 -35 -65 -53q-19 -9 -41 -13q-25 -6 -50 -10q-53 -6 -106 -6h-193v352zM821 1429q301 -4 492 -200
q192 -195 194 -496q-4 -295 -194 -493q-191 -203 -492 -207q-299 4 -489 205q-199 196 -201 495q2 301 199 496q190 196 491 200zM53 731q4 -323 226 -541q217 -221 540 -225q328 4 545 225q217 218 221 541q-4 328 -221 545t-545 221q-323 -4 -540 -221
q-222 -217 -226 -545z" />
    <glyph glyph-name="macron" unicode="&#xaf;" horiz-adv-x="342" 
d="M577 1288l13 68h-492l-12 -68h491z" />
    <glyph glyph-name="macron" unicode="&#x2c9;" horiz-adv-x="342" 
d="M577 1288l13 68h-492l-12 -68h491z" />
    <glyph glyph-name="degree" unicode="&#xb0;" horiz-adv-x="819" 
d="M410 1370q94 -2 155 -66q58 -63 60 -159q-2 -94 -60 -158q-61 -65 -155 -68q-95 3 -152 68q-63 64 -63 158q0 96 63 159q57 64 152 66zM410 852q127 2 208 86q82 82 84 207q-2 127 -84 209q-81 82 -208 84q-125 -2 -207 -84q-84 -82 -86 -209q2 -125 86 -207
q82 -84 207 -86z" />
    <glyph glyph-name="plusminus" unicode="&#xb1;" horiz-adv-x="1229" 
d="M575 645h-477v-78h477v-387h78v387h477v78h-477v387h-78v-387zM98 0h1032v78h-1032v-78z" />
    <glyph glyph-name="twosuperior" unicode="&#xb2;" horiz-adv-x="682" 
d="M633 618h-547q35 97 137 158q101 60 219 115l115 61q53 31 94 68q88 72 90 192q-2 111 -75 170q-76 56 -199 56q-143 -2 -225 -82q-84 -82 -95 -219h66q8 108 76 178q65 65 186 67q92 0 145 -45q54 -47 56 -127q0 -57 -35 -104q-35 -45 -92 -86q-58 -37 -117 -68
q-61 -33 -113 -57q-110 -51 -198 -127q-86 -78 -101 -205h600z" />
    <glyph glyph-name="threesuperior" unicode="&#xb3;" horiz-adv-x="682" 
d="M201 1161q20 96 82 160q61 59 170 61q92 0 149 -39q57 -43 59 -129q0 -55 -28 -88q-31 -37 -78 -55t-102 -27q-58 -8 -111 -8l-8 -55h57q27 0 51 -4q49 -4 84 -23q72 -30 74 -137q-2 -102 -78 -158q-76 -59 -192 -59q-234 2 -236 205q0 22 4 45h-65q-4 -23 -4 -45
q4 -258 301 -260q145 4 239 73q95 72 97 209q0 70 -41 119q-41 51 -115 62v4q94 8 156 65q59 55 61 146q-2 108 -78 163q-78 52 -176 52q-301 -9 -338 -277h66z" />
    <glyph glyph-name="acute" unicode="&#xb4;" horiz-adv-x="342" 
d="M180 1210h76l225 287h-98z" />
    <glyph glyph-name="mu" unicode="&#xb5;" horiz-adv-x="1063" 
d="M997 1053h-78l-104 -496q-37 -186 -151 -344q-58 -76 -136 -121q-75 -49 -172 -49q-116 0 -180 66q-65 59 -65 159q0 49 14 115q10 65 16 96l129 574h-78l-315 -1430h78l108 490h5q20 -50 84 -88q63 -41 178 -50q157 2 252 68q96 66 159 182l4 -4l-49 -221h78z" />
    <glyph glyph-name="mu" unicode="&#x3bc;" horiz-adv-x="1063" 
d="M997 1053h-78l-104 -496q-37 -186 -151 -344q-58 -76 -136 -121q-75 -49 -172 -49q-116 0 -180 66q-65 59 -65 159q0 49 14 115q10 65 16 96l129 574h-78l-315 -1430h78l108 490h5q20 -50 84 -88q63 -41 178 -50q157 2 252 68q96 66 159 182l4 -4l-49 -221h78z" />
    <glyph glyph-name="paragraph" unicode="&#xb6;" horiz-adv-x="1229" 
d="M381 -299h90l350 1694h299l-350 -1694h90l365 1761h-445q-219 0 -379 -121q-165 -123 -170 -358q2 -133 99 -219q94 -90 252 -92z" />
    <glyph glyph-name="periodcentered" unicode="&#xb7;" horiz-adv-x="569" 
d="M158 649q0 -43 34 -76q33 -36 76 -36q47 0 80 34q33 33 33 78q0 47 -33 80q-35 29 -80 31q-43 0 -76 -33q-34 -33 -34 -78z" />
    <glyph glyph-name="cedilla" unicode="&#xb8;" horiz-adv-x="342" 
d="M-129 -350q90 -49 188 -51q74 0 140 41q32 20 51 51q18 28 18 67q-2 68 -47 105q-47 37 -115 37q-30 0 -55 -9l-4 5l105 116h-50l-147 -164l29 -30q45 26 98 26q45 0 78 -22q28 -25 30 -62q-2 -49 -36 -77q-35 -29 -91 -29q-88 2 -165 47z" />
    <glyph glyph-name="onesuperior" unicode="&#xb9;" horiz-adv-x="682" 
d="M188 1208q138 17 263 113l4 -4l-176 -754h69l199 856h-62q-59 -55 -129 -96q-69 -41 -157 -55z" />
    <glyph glyph-name="ordmasculine" unicode="&#xba;" horiz-adv-x="659" 
d="M448 1382q205 -16 205 -207q0 -131 -78 -245q-38 -56 -98 -88q-57 -37 -135 -37q-113 2 -164 67q-53 64 -53 160q0 131 86 240q84 108 237 110zM438 1438q-182 -5 -278 -127q-101 -123 -101 -283q-2 -274 285 -278q190 4 283 137q92 127 92 288q-4 261 -281 263z" />
    <glyph glyph-name="guillemotright" unicode="&#xbb;" horiz-adv-x="797" 
d="M68 248l301 270l18 78l-186 270l-23 -100l144 -199l-232 -215zM330 248l301 270l18 78l-186 270l-23 -100l144 -199l-232 -215z" />
    <glyph glyph-name="onequarter" unicode="&#xbc;" horiz-adv-x="1708" 
d="M236 -49h81l953 1511h-82zM188 1208q138 17 263 113l4 -4l-176 -754h69l199 856h-62q-59 -55 -129 -96q-69 -41 -157 -55zM1493 848h-74l-579 -584l-13 -51h453l-49 -213h67l49 213h148l14 55h-149zM930 268l463 469h6l-109 -469h-360z" />
    <glyph glyph-name="onehalf" unicode="&#xbd;" horiz-adv-x="1708" 
d="M236 -49h81l953 1511h-82zM1454 55h-547q35 97 137 158q101 59 220 115q59 30 114 61q53 31 94 68q88 71 91 192q-3 111 -76 170q-76 55 -199 55q-143 -2 -225 -81q-84 -82 -94 -220h65q8 109 76 179q65 65 186 67q92 0 146 -45q53 -47 55 -127q0 -57 -35 -104
q-35 -45 -92 -86q-57 -37 -117 -68q-61 -33 -112 -57q-111 -51 -199 -127q-86 -78 -100 -205h600zM188 1208q138 17 263 113l4 -4l-176 -754h69l199 856h-62q-59 -55 -129 -96q-69 -41 -157 -55z" />
    <glyph glyph-name="threequarters" unicode="&#xbe;" horiz-adv-x="1708" 
d="M297 1161q20 96 82 160q61 59 170 61q92 0 149 -39q58 -43 60 -129q0 -55 -29 -88q-31 -37 -78 -55t-102 -27q-58 -8 -111 -8l-8 -55h57q27 0 52 -4q49 -4 84 -23q71 -30 73 -137q-2 -102 -78 -158q-75 -59 -192 -59q-234 2 -236 205q0 22 5 45h-66q-4 -23 -4 -45
q4 -258 301 -260q145 4 240 73q94 72 96 209q0 70 -41 119q-41 51 -115 62v4q94 8 156 65q59 55 61 146q-2 108 -78 163q-77 52 -176 52q-301 -9 -338 -277h66zM412 -49h82l952 1511h-82zM1540 848h-74l-579 -584l-13 -51h453l-49 -213h67l50 213h147l14 55h-149zM977 268
l463 469h6l-109 -469h-360z" />
    <glyph glyph-name="questiondown" unicode="&#xbf;" horiz-adv-x="1063" 
d="M506 715q-27 -158 -86 -226q-62 -69 -197 -153q-137 -86 -196 -176q-62 -92 -62 -228q4 -165 123 -249q117 -84 270 -84q222 4 338 147q115 141 135 338h-90q-24 -178 -110 -291q-90 -114 -273 -117q-135 0 -217 72q-84 68 -86 205q0 53 17 96q16 43 39 78q26 35 51 61
q24 25 47 43q51 41 113 80q61 39 120 86q60 51 103 127q41 76 51 191h-90zM532 885h103l47 211h-102z" />
    <glyph glyph-name="Agrave" unicode="&#xc0;" horiz-adv-x="1251" 
d="M778 1372l148 -825h-645zM-152 0h103l282 469h707l84 -469h90l-272 1462h-95zM668 1851l225 -287h76l-203 287h-98z" />
    <glyph glyph-name="Aacute" unicode="&#xc1;" horiz-adv-x="1251" 
d="M778 1372l148 -825h-645zM-152 0h103l282 469h707l84 -469h90l-272 1462h-95zM686 1564h76l225 287h-98z" />
    <glyph glyph-name="Acircumflex" unicode="&#xc2;" horiz-adv-x="1251" 
d="M778 1372l148 -825h-645zM-152 0h103l282 469h707l84 -469h90l-272 1462h-95zM858 1800l146 -236h86l-180 287h-95l-272 -287h90z" />
    <glyph glyph-name="Atilde" unicode="&#xc3;" horiz-adv-x="1251" 
d="M778 1372l148 -825h-645zM-152 0h103l282 469h707l84 -469h90l-272 1462h-95zM1088 1767q-11 -35 -35 -72q-12 -16 -29 -26q-18 -15 -39 -15q-67 2 -133 60q-33 22 -67 41q-33 16 -74 16q-70 -2 -113 -57q-43 -56 -55 -123h59q11 39 37 76q29 34 68 37q26 0 57 -17
q31 -18 66 -41q34 -22 71 -39q37 -20 74 -20q74 2 117 59q43 53 55 121h-59z" />
    <glyph glyph-name="Adieresis" unicode="&#xc4;" horiz-adv-x="1251" 
d="M778 1372l148 -825h-645zM-152 0h103l282 469h707l84 -469h90l-272 1462h-95zM951 1570h91l38 211h-90zM626 1570h90l39 211h-90z" />
    <glyph glyph-name="Aring" unicode="&#xc5;" horiz-adv-x="1251" 
d="M778 1372l148 -825h-645zM-152 0h103l282 469h707l84 -469h90l-272 1462h-95zM672 1696q0 -86 59 -144q57 -59 143 -59q88 0 146 59q55 58 57 144q-2 88 -57 145q-58 55 -146 57q-86 -2 -143 -57q-59 -57 -59 -145zM727 1696q0 63 43 104q41 41 104 43q64 -2 105 -43
t43 -104q-2 -64 -43 -105q-41 -43 -105 -43q-63 0 -104 43q-43 41 -43 105z" />
    <glyph glyph-name="AE" unicode="&#xc6;" horiz-adv-x="1782" 
d="M-72 0l396 520h540l-110 -520h866l20 78h-780l135 643h699l16 78h-698l125 585h749l16 78h-966l-1114 -1462h106zM977 1384h69l-167 -786h-500z" />
    <glyph glyph-name="Ccedilla" unicode="&#xc7;" horiz-adv-x="1442" 
d="M1415 1012q4 221 -141 352q-146 131 -402 133q-389 -8 -589 -299q-203 -283 -203 -614q4 -320 166 -461q157 -143 368 -154l-108 -121l28 -30q46 26 99 26q45 0 78 -22q28 -25 30 -62q-2 -49 -37 -77q-34 -29 -90 -29q-88 2 -166 47l-26 -51q90 -49 188 -51q74 0 140 41
q32 20 51 51q18 28 18 67q-2 68 -47 105q-47 37 -115 37q-30 0 -55 -9l-4 5l61 69h7q243 2 432 156q188 149 241 387h-90q-53 -199 -209 -330q-157 -133 -366 -135q-226 0 -361 135q-141 133 -143 399q0 324 186 578q185 256 518 264q193 0 320 -102q125 -105 131 -305h90z
" />
    <glyph glyph-name="Egrave" unicode="&#xc8;" 
d="M-2 0h979l16 78h-889l136 643h804l15 78h-803l123 585h862l18 78h-954zM635 1851l225 -287h76l-203 287h-98z" />
    <glyph glyph-name="Eacute" unicode="&#xc9;" 
d="M-2 0h979l16 78h-889l136 643h804l15 78h-803l123 585h862l18 78h-954zM671 1564h76l225 287h-98z" />
    <glyph glyph-name="Ecircumflex" unicode="&#xca;" 
d="M-2 0h979l16 78h-889l136 643h804l15 78h-803l123 585h862l18 78h-954zM827 1800l146 -236h86l-180 287h-95l-272 -287h90z" />
    <glyph glyph-name="Edieresis" unicode="&#xcb;" 
d="M-2 0h979l16 78h-889l136 643h804l15 78h-803l123 585h862l18 78h-954zM917 1570h91l38 211h-90zM592 1570h90l39 211h-90z" />
    <glyph glyph-name="Igrave" unicode="&#xcc;" horiz-adv-x="379" 
d="M-2 0h90l309 1462h-90zM185 1851l225 -287h76l-203 287h-98z" />
    <glyph glyph-name="Iacute" unicode="&#xcd;" horiz-adv-x="379" 
d="M-2 0h90l309 1462h-90zM206 1564h76l225 287h-98z" />
    <glyph glyph-name="Icircumflex" unicode="&#xce;" horiz-adv-x="379" 
d="M-2 0h90l309 1462h-90zM398 1800l146 -236h86l-180 287h-95l-272 -287h90z" />
    <glyph glyph-name="Idieresis" unicode="&#xcf;" horiz-adv-x="379" 
d="M-2 0h90l309 1462h-90zM468 1570h91l38 211h-90zM143 1570h90l39 211h-90z" />
    <glyph glyph-name="Eth" unicode="&#xd0;" horiz-adv-x="1403" 
d="M170 811h-158l-16 -68h160l-158 -743h539q382 8 583 281q199 264 201 591q12 584 -541 590h-473zM381 1384h379q258 0 366 -129q107 -129 105 -383q2 -272 -162 -524q-166 -262 -543 -270h-422l142 665h522l16 68h-524z" />
    <glyph glyph-name="Ntilde" unicode="&#xd1;" horiz-adv-x="1403" 
d="M-2 0h90l279 1372h4l645 -1372h104l318 1462h-91l-284 -1372h-4l-641 1372h-107zM1133 1767q-11 -35 -35 -72q-12 -16 -29 -26q-18 -15 -39 -15q-67 2 -133 60q-33 22 -67 41q-33 16 -74 16q-70 -2 -113 -57q-43 -56 -55 -123h59q11 39 37 76q29 34 68 37q26 0 57 -17
q31 -18 66 -41q34 -22 71 -39q37 -20 74 -20q74 2 117 59q43 53 55 121h-59z" />
    <glyph glyph-name="Ograve" unicode="&#xd2;" horiz-adv-x="1517" 
d="M170 588q2 342 192 583q189 242 508 248q250 -2 375 -153q123 -152 123 -394q-2 -309 -184 -561q-185 -262 -512 -268q-240 2 -371 152q-131 147 -131 393zM80 590q6 -610 602 -625q367 8 569 295q205 279 207 623q-6 600 -596 614q-360 -6 -567 -279
q-213 -268 -215 -628zM771 1851l225 -287h76l-203 287h-98z" />
    <glyph glyph-name="Oacute" unicode="&#xd3;" horiz-adv-x="1517" 
d="M170 588q2 342 192 583q189 242 508 248q250 -2 375 -153q123 -152 123 -394q-2 -309 -184 -561q-185 -262 -512 -268q-240 2 -371 152q-131 147 -131 393zM80 590q6 -610 602 -625q367 8 569 295q205 279 207 623q-6 600 -596 614q-360 -6 -567 -279
q-213 -268 -215 -628zM789 1564h76l225 287h-98z" />
    <glyph glyph-name="Ocircumflex" unicode="&#xd4;" horiz-adv-x="1517" 
d="M170 588q2 342 192 583q189 242 508 248q250 -2 375 -153q123 -152 123 -394q-2 -309 -184 -561q-185 -262 -512 -268q-240 2 -371 152q-131 147 -131 393zM80 590q6 -610 602 -625q367 8 569 295q205 279 207 623q-6 600 -596 614q-360 -6 -567 -279
q-213 -268 -215 -628zM961 1800l146 -236h86l-180 287h-95l-272 -287h90z" />
    <glyph glyph-name="Otilde" unicode="&#xd5;" horiz-adv-x="1517" 
d="M170 588q2 342 192 583q189 242 508 248q250 -2 375 -153q123 -152 123 -394q-2 -309 -184 -561q-185 -262 -512 -268q-240 2 -371 152q-131 147 -131 393zM80 590q6 -610 602 -625q367 8 569 295q205 279 207 623q-6 600 -596 614q-360 -6 -567 -279
q-213 -268 -215 -628zM1191 1767q-11 -35 -35 -72q-12 -16 -29 -26q-18 -15 -39 -15q-67 2 -133 60q-33 22 -67 41q-33 16 -74 16q-70 -2 -113 -57q-43 -56 -55 -123h59q11 39 37 76q29 34 68 37q26 0 57 -17q31 -18 66 -41q34 -22 71 -39q37 -20 74 -20q74 2 117 59
q43 53 55 121h-59z" />
    <glyph glyph-name="Odieresis" unicode="&#xd6;" horiz-adv-x="1517" 
d="M170 588q2 342 192 583q189 242 508 248q250 -2 375 -153q123 -152 123 -394q-2 -309 -184 -561q-185 -262 -512 -268q-240 2 -371 152q-131 147 -131 393zM80 590q6 -610 602 -625q367 8 569 295q205 279 207 623q-6 600 -596 614q-360 -6 -567 -279
q-213 -268 -215 -628zM1054 1570h91l38 211h-90zM729 1570h90l39 211h-90z" />
    <glyph glyph-name="multiply" unicode="&#xd7;" horiz-adv-x="1229" 
d="M162 119l53 -56l399 400l398 -400l55 56l-397 397l397 399l-55 56l-398 -400l-399 400l-53 -56l397 -399z" />
    <glyph glyph-name="Oslash" unicode="&#xd8;" horiz-adv-x="1517" 
d="M1261 1239q107 -143 107 -367q-2 -309 -184 -561q-185 -262 -512 -268q-224 2 -357 137zM281 219q-111 135 -111 369q2 342 192 583q189 242 508 248q127 0 215 -39q86 -37 142 -100zM63 -27l39 -30l156 174q72 -68 174 -109q100 -41 250 -43q367 8 569 295
q205 279 207 623q-2 276 -137 426l149 165l-43 33l-143 -160q-131 144 -422 150q-360 -6 -567 -279q-213 -268 -215 -628q2 -301 143 -436z" />
    <glyph glyph-name="Ugrave" unicode="&#xd9;" horiz-adv-x="1366" 
d="M1401 1462h-90l-205 -958q-39 -209 -160 -332q-123 -127 -364 -129q-164 -2 -287 80q-127 80 -131 256q0 112 28 219l185 864h-90l-185 -864l-18 -100q-10 -58 -10 -105q2 -219 147 -323q141 -105 346 -105q283 0 428 135q148 131 201 402zM711 1851l225 -287h76
l-203 287h-98z" />
    <glyph glyph-name="Uacute" unicode="&#xda;" horiz-adv-x="1366" 
d="M1401 1462h-90l-205 -958q-39 -209 -160 -332q-123 -127 -364 -129q-164 -2 -287 80q-127 80 -131 256q0 112 28 219l185 864h-90l-185 -864l-18 -100q-10 -58 -10 -105q2 -219 147 -323q141 -105 346 -105q283 0 428 135q148 131 201 402zM731 1564h76l225 287h-98z" />
    <glyph glyph-name="Ucircumflex" unicode="&#xdb;" horiz-adv-x="1366" 
d="M1401 1462h-90l-205 -958q-39 -209 -160 -332q-123 -127 -364 -129q-164 -2 -287 80q-127 80 -131 256q0 112 28 219l185 864h-90l-185 -864l-18 -100q-10 -58 -10 -105q2 -219 147 -323q141 -105 346 -105q283 0 428 135q148 131 201 402zM903 1800l146 -236h86
l-180 287h-95l-272 -287h90z" />
    <glyph glyph-name="Udieresis" unicode="&#xdc;" horiz-adv-x="1366" 
d="M1401 1462h-90l-205 -958q-39 -209 -160 -332q-123 -127 -364 -129q-164 -2 -287 80q-127 80 -131 256q0 112 28 219l185 864h-90l-185 -864l-18 -100q-10 -58 -10 -105q2 -219 147 -323q141 -105 346 -105q283 0 428 135q148 131 201 402zM993 1570h91l38 211h-90z
M668 1570h90l39 211h-90z" />
    <glyph glyph-name="Yacute" unicode="&#xdd;" 
d="M389 0h90l129 600l742 862h-113l-660 -774l-356 774h-90l391 -848zM592 1564h76l225 287h-98z" />
    <glyph glyph-name="Thorn" unicode="&#xde;" horiz-adv-x="1214" 
d="M332 1139h356q86 0 164 -4q78 -7 137 -33q60 -27 94 -82q33 -58 33 -156q-2 -184 -119 -280q-118 -101 -295 -101h-512zM174 405h498q225 0 379 109q151 109 155 350q0 115 -37 185q-37 69 -104 106q-68 37 -158 51q-90 10 -194 10h-365l53 246h-90l-313 -1462h90z" />
    <glyph glyph-name="germandbls" unicode="&#xdf;" horiz-adv-x="1024" 
d="M451 776q77 0 145 -10q68 -12 121 -45q112 -62 114 -234q-2 -186 -120 -311q-121 -131 -306 -133q-51 0 -102 10l-16 -67q55 -11 114 -11q224 5 365 152t143 371q-2 252 -250 305v4q142 24 230 121q88 98 90 241q-2 158 -92 238t-244 80q-211 -2 -305 -123
q-96 -121 -133 -318l-219 -1046h77l218 1038q14 76 38 144q25 67 64 120q39 54 100 86q60 31 142 31q118 0 198 -61q76 -62 78 -187q-4 -170 -131 -249q-125 -78 -301 -78z" />
    <glyph glyph-name="agrave" unicode="&#xe0;" horiz-adv-x="1024" 
d="M741 451q-41 -168 -139 -285q-98 -121 -287 -123q-106 -2 -184 49q-82 51 -84 166q0 88 37 139q35 51 90 76q59 27 129 35t143 8q74 6 177 23q49 8 90 22q41 12 61 33h4zM199 750q73 262 356 260q268 -5 264 -215q2 -117 -82 -160q-88 -45 -305 -51q-90 0 -170 -13
q-84 -14 -149 -51q-66 -33 -103 -96q-41 -64 -41 -166q2 -149 97 -215q92 -68 229 -68q108 0 221 54q111 51 176 163h4q-4 -18 -8 -45q-8 -26 -8 -43q0 -36 27 -69q24 -37 75 -39q43 0 90 10l13 70q-35 -13 -70 -13q-29 0 -41 21q-16 18 -16 47q0 51 26 152q13 47 25 96
l18 88q11 35 39 160q29 123 31 200q0 80 -33 131q-35 50 -88 76q-53 27 -106 35q-58 8 -99 8q-360 6 -452 -327h80zM463 1497l225 -287h76l-203 287h-98z" />
    <glyph glyph-name="aacute" unicode="&#xe1;" horiz-adv-x="1024" 
d="M741 451q-41 -168 -139 -285q-98 -121 -287 -123q-106 -2 -184 49q-82 51 -84 166q0 88 37 139q35 51 90 76q59 27 129 35t143 8q74 6 177 23q49 8 90 22q41 12 61 33h4zM199 750q73 262 356 260q268 -5 264 -215q2 -117 -82 -160q-88 -45 -305 -51q-90 0 -170 -13
q-84 -14 -149 -51q-66 -33 -103 -96q-41 -64 -41 -166q2 -149 97 -215q92 -68 229 -68q108 0 221 54q111 51 176 163h4q-4 -18 -8 -45q-8 -26 -8 -43q0 -36 27 -69q24 -37 75 -39q43 0 90 10l13 70q-35 -13 -70 -13q-29 0 -41 21q-16 18 -16 47q0 51 26 152q13 47 25 96
l18 88q11 35 39 160q29 123 31 200q0 80 -33 131q-35 50 -88 76q-53 27 -106 35q-58 8 -99 8q-360 6 -452 -327h80zM483 1210h76l225 287h-98z" />
    <glyph glyph-name="acircumflex" unicode="&#xe2;" horiz-adv-x="1024" 
d="M741 451q-41 -168 -139 -285q-98 -121 -287 -123q-106 -2 -184 49q-82 51 -84 166q0 88 37 139q35 51 90 76q59 27 129 35t143 8q74 6 177 23q49 8 90 22q41 12 61 33h4zM199 750q73 262 356 260q268 -5 264 -215q2 -117 -82 -160q-88 -45 -305 -51q-90 0 -170 -13
q-84 -14 -149 -51q-66 -33 -103 -96q-41 -64 -41 -166q2 -149 97 -215q92 -68 229 -68q108 0 221 54q111 51 176 163h4q-4 -18 -8 -45q-8 -26 -8 -43q0 -36 27 -69q24 -37 75 -39q43 0 90 10l13 70q-35 -13 -70 -13q-29 0 -41 21q-16 18 -16 47q0 51 26 152q13 47 25 96
l18 88q11 35 39 160q29 123 31 200q0 80 -33 131q-35 50 -88 76q-53 27 -106 35q-58 8 -99 8q-360 6 -452 -327h80zM653 1446l146 -236h86l-180 287h-95l-272 -287h90z" />
    <glyph glyph-name="atilde" unicode="&#xe3;" horiz-adv-x="1024" 
d="M741 451q-41 -168 -139 -285q-98 -121 -287 -123q-106 -2 -184 49q-82 51 -84 166q0 88 37 139q35 51 90 76q59 27 129 35t143 8q74 6 177 23q49 8 90 22q41 12 61 33h4zM199 750q73 262 356 260q268 -5 264 -215q2 -117 -82 -160q-88 -45 -305 -51q-90 0 -170 -13
q-84 -14 -149 -51q-66 -33 -103 -96q-41 -64 -41 -166q2 -149 97 -215q92 -68 229 -68q108 0 221 54q111 51 176 163h4q-4 -18 -8 -45q-8 -26 -8 -43q0 -36 27 -69q24 -37 75 -39q43 0 90 10l13 70q-35 -13 -70 -13q-29 0 -41 21q-16 18 -16 47q0 51 26 152q13 47 25 96
l18 88q11 35 39 160q29 123 31 200q0 80 -33 131q-35 50 -88 76q-53 27 -106 35q-58 8 -99 8q-360 6 -452 -327h80zM883 1413q-11 -35 -35 -72q-12 -16 -29 -26q-18 -15 -39 -15q-67 2 -133 60q-33 22 -67 41q-33 16 -74 16q-70 -2 -113 -57q-43 -56 -55 -123h59
q11 39 37 76q29 34 68 37q26 0 57 -17q31 -18 66 -41q34 -22 71 -39q37 -20 74 -20q74 2 117 59q43 53 55 121h-59z" />
    <glyph glyph-name="adieresis" unicode="&#xe4;" horiz-adv-x="1024" 
d="M741 451q-41 -168 -139 -285q-98 -121 -287 -123q-106 -2 -184 49q-82 51 -84 166q0 88 37 139q35 51 90 76q59 27 129 35t143 8q74 6 177 23q49 8 90 22q41 12 61 33h4zM199 750q73 262 356 260q268 -5 264 -215q2 -117 -82 -160q-88 -45 -305 -51q-90 0 -170 -13
q-84 -14 -149 -51q-66 -33 -103 -96q-41 -64 -41 -166q2 -149 97 -215q92 -68 229 -68q108 0 221 54q111 51 176 163h4q-4 -18 -8 -45q-8 -26 -8 -43q0 -36 27 -69q24 -37 75 -39q43 0 90 10l13 70q-35 -13 -70 -13q-29 0 -41 21q-16 18 -16 47q0 51 26 152q13 47 25 96
l18 88q11 35 39 160q29 123 31 200q0 80 -33 131q-35 50 -88 76q-53 27 -106 35q-58 8 -99 8q-360 6 -452 -327h80zM745 1216h91l38 211h-90zM420 1216h90l39 211h-90z" />
    <glyph glyph-name="aring" unicode="&#xe5;" horiz-adv-x="1024" 
d="M741 451q-41 -168 -139 -285q-98 -121 -287 -123q-106 -2 -184 49q-82 51 -84 166q0 88 37 139q35 51 90 76q59 27 129 35t143 8q74 6 177 23q49 8 90 22q41 12 61 33h4zM199 750q73 262 356 260q268 -5 264 -215q2 -117 -82 -160q-88 -45 -305 -51q-90 0 -170 -13
q-84 -14 -149 -51q-66 -33 -103 -96q-41 -64 -41 -166q2 -149 97 -215q92 -68 229 -68q108 0 221 54q111 51 176 163h4q-4 -18 -8 -45q-8 -26 -8 -43q0 -36 27 -69q24 -37 75 -39q43 0 90 10l13 70q-35 -13 -70 -13q-29 0 -41 21q-16 18 -16 47q0 51 26 152q13 47 25 96
l18 88q11 35 39 160q29 123 31 200q0 80 -33 131q-35 50 -88 76q-53 27 -106 35q-58 8 -99 8q-360 6 -452 -327h80zM467 1311q0 -86 59 -144q57 -59 143 -59q88 0 146 59q55 58 57 144q-2 88 -57 145q-58 55 -146 57q-86 -2 -143 -57q-59 -57 -59 -145zM522 1311
q0 63 43 104q41 41 104 43q64 -2 105 -43t43 -104q-2 -64 -43 -105q-41 -43 -105 -43q-63 0 -104 43q-43 41 -43 105z" />
    <glyph glyph-name="ae" unicode="&#xe6;" horiz-adv-x="1745" 
d="M203 741q22 127 121 199q96 70 219 70q247 -5 252 -205q2 -125 -68 -164q-72 -41 -248 -53q-90 -6 -178 -21q-90 -14 -164 -47q-71 -33 -117 -96q-45 -64 -47 -174q2 -121 95 -197q88 -76 237 -78q150 2 266 97q58 43 101 102q41 57 63 125h4q19 -152 125 -236
q105 -86 238 -88q196 2 311 99q115 96 172 276h-78q-43 -131 -137 -217q-96 -88 -242 -90q-143 0 -229 88q-90 86 -92 225q0 86 16 160h803q16 84 16 166q-2 170 -98 280q-100 113 -276 115q-131 -2 -240 -74q-111 -73 -162 -186h-4q-4 143 -98 203q-96 57 -227 57
q-162 0 -271 -88q-110 -86 -143 -248h80zM725 436q-35 -164 -139 -276q-107 -115 -293 -117q-98 0 -168 57q-72 54 -74 152q0 51 17 90q16 37 41 66q53 55 129 77q75 25 143 33q65 6 92 4q59 4 152 17q45 6 82 20q34 12 51 33h4zM833 584q37 170 148 295q108 126 289 131
q139 -2 217 -95q78 -92 78 -223q0 -51 -11 -108h-721z" />
    <glyph glyph-name="ccedilla" unicode="&#xe7;" horiz-adv-x="1063" 
d="M985 725q8 162 -98 256q-105 94 -275 96q-258 -6 -411 -201q-156 -194 -158 -450q-2 -195 92 -315q94 -123 297 -134l-117 -129l29 -30q45 26 98 26q45 0 78 -22q29 -25 31 -62q-2 -49 -37 -77q-35 -29 -90 -29q-88 2 -166 47l-27 -51q91 -49 189 -51q74 0 139 41
q33 20 51 51q19 28 19 67q-2 68 -47 105q-48 37 -115 37q-31 0 -55 -9l-4 5l73 81q166 13 281 113q112 98 168 254h-86q-51 -135 -154 -217q-102 -84 -250 -84q-168 2 -243 119q-76 112 -76 268q0 213 133 393q129 180 358 187q289 -7 295 -285h78z" />
    <glyph glyph-name="egrave" unicode="&#xe8;" horiz-adv-x="1063" 
d="M958 516q15 76 15 156q0 180 -99 290q-98 113 -286 115q-260 -4 -408 -194q-151 -191 -151 -492q0 -172 102 -291q102 -120 301 -125q193 2 315 107q121 102 168 268h-77q-31 -123 -138 -213q-110 -92 -260 -94q-159 2 -245 109q-89 102 -89 249q0 62 11 115h841z
M129 584q37 174 150 299q110 125 294 127q166 -2 246 -101q76 -96 76 -237q0 -37 -10 -88h-756zM480 1497l225 -287h76l-203 287h-98z" />
    <glyph glyph-name="eacute" unicode="&#xe9;" horiz-adv-x="1063" 
d="M958 516q15 76 15 156q0 180 -99 290q-98 113 -286 115q-260 -4 -408 -194q-151 -191 -151 -492q0 -172 102 -291q102 -120 301 -125q193 2 315 107q121 102 168 268h-77q-31 -123 -138 -213q-110 -92 -260 -94q-159 2 -245 109q-89 102 -89 249q0 62 11 115h841z
M129 584q37 174 150 299q110 125 294 127q166 -2 246 -101q76 -96 76 -237q0 -37 -10 -88h-756zM501 1210h76l225 287h-98z" />
    <glyph glyph-name="ecircumflex" unicode="&#xea;" horiz-adv-x="1063" 
d="M958 516q15 76 15 156q0 180 -99 290q-98 113 -286 115q-260 -4 -408 -194q-151 -191 -151 -492q0 -172 102 -291q102 -120 301 -125q193 2 315 107q121 102 168 268h-77q-31 -123 -138 -213q-110 -92 -260 -94q-159 2 -245 109q-89 102 -89 249q0 62 11 115h841z
M129 584q37 174 150 299q110 125 294 127q166 -2 246 -101q76 -96 76 -237q0 -37 -10 -88h-756zM670 1446l146 -236h86l-180 287h-95l-272 -287h90z" />
    <glyph glyph-name="edieresis" unicode="&#xeb;" horiz-adv-x="1063" 
d="M958 516q15 76 15 156q0 180 -99 290q-98 113 -286 115q-260 -4 -408 -194q-151 -191 -151 -492q0 -172 102 -291q102 -120 301 -125q193 2 315 107q121 102 168 268h-77q-31 -123 -138 -213q-110 -92 -260 -94q-159 2 -245 109q-89 102 -89 249q0 62 11 115h841z
M129 584q37 174 150 299q110 125 294 127q166 -2 246 -101q76 -96 76 -237q0 -37 -10 -88h-756zM763 1216h91l38 211h-90zM438 1216h90l39 211h-90z" />
    <glyph glyph-name="igrave" unicode="&#xec;" horiz-adv-x="342" 
d="M63 0l220 1053h-78l-219 -1053h77zM113 1497l225 -287h76l-203 287h-98z" />
    <glyph glyph-name="iacute" unicode="&#xed;" horiz-adv-x="342" 
d="M63 0l220 1053h-78l-219 -1053h77zM131 1210h76l225 287h-98z" />
    <glyph glyph-name="icircumflex" unicode="&#xee;" horiz-adv-x="342" 
d="M63 0l220 1053h-78l-219 -1053h77zM303 1446l146 -236h86l-180 287h-95l-272 -287h90z" />
    <glyph glyph-name="idieresis" unicode="&#xef;" horiz-adv-x="342" 
d="M63 0l220 1053h-78l-219 -1053h77zM396 1216h91l38 211h-90zM71 1216h90l39 211h-90z" />
    <glyph glyph-name="eth" unicode="&#xf0;" horiz-adv-x="1100" 
d="M592 969q51 4 110 -13q58 -18 111 -61q53 -41 88 -115q33 -76 33 -188q0 -82 -29 -176q-31 -94 -92 -178t-149 -138q-93 -57 -216 -57q-178 2 -260 109q-82 104 -82 264q0 215 134 379q129 161 352 174zM344 1202l49 -45l230 117q114 -101 225 -324h-4q-43 43 -111 66
q-69 20 -137 20q-268 -4 -416 -192q-151 -185 -151 -434q-2 -424 422 -435q272 7 417 197q144 184 144 432q0 103 -27 205t-74 194q-98 193 -217 312l244 123l-49 41l-242 -123q-94 96 -170 141l-67 -47q61 -37 163 -131z" />
    <glyph glyph-name="ntilde" unicode="&#xf1;" horiz-adv-x="1063" 
d="M-14 0h77l105 496q37 188 156 346q59 75 139 123q78 45 176 45q121 -2 184 -62q64 -59 64 -164q0 -49 -11 -112q-12 -64 -20 -99l-129 -573h78l129 575q10 41 20 107q11 63 11 104q-3 140 -89 215q-86 76 -210 76q-287 -6 -426 -254h-4l51 230h-78zM902 1413
q-11 -35 -35 -72q-12 -16 -29 -26q-18 -15 -39 -15q-67 2 -133 60q-33 22 -67 41q-33 16 -74 16q-70 -2 -113 -57q-43 -56 -55 -123h59q11 39 37 76q29 34 68 37q26 0 57 -17q31 -18 66 -41q34 -22 71 -39q37 -20 74 -20q74 2 117 59q43 53 55 121h-59z" />
    <glyph glyph-name="ograve" unicode="&#xf2;" horiz-adv-x="1100" 
d="M612 1010q322 -23 322 -349q0 -217 -121 -411q-61 -90 -149 -148q-93 -59 -216 -59q-178 2 -260 113q-82 108 -82 268q0 221 134 401q131 180 372 185zM596 1077q-268 -6 -416 -209q-151 -198 -151 -450q0 -203 106 -320q105 -121 316 -123q280 7 421 226
q140 211 140 463q-9 407 -416 413zM501 1497l225 -287h76l-203 287h-98z" />
    <glyph glyph-name="oacute" unicode="&#xf3;" horiz-adv-x="1100" 
d="M612 1010q322 -23 322 -349q0 -217 -121 -411q-61 -90 -149 -148q-93 -59 -216 -59q-178 2 -260 113q-82 108 -82 268q0 221 134 401q131 180 372 185zM596 1077q-268 -6 -416 -209q-151 -198 -151 -450q0 -203 106 -320q105 -121 316 -123q280 7 421 226
q140 211 140 463q-9 407 -416 413zM519 1210h76l225 287h-98z" />
    <glyph glyph-name="ocircumflex" unicode="&#xf4;" horiz-adv-x="1100" 
d="M612 1010q322 -23 322 -349q0 -217 -121 -411q-61 -90 -149 -148q-93 -59 -216 -59q-178 2 -260 113q-82 108 -82 268q0 221 134 401q131 180 372 185zM596 1077q-268 -6 -416 -209q-151 -198 -151 -450q0 -203 106 -320q105 -121 316 -123q280 7 421 226
q140 211 140 463q-9 407 -416 413zM691 1446l146 -236h86l-180 287h-95l-272 -287h90z" />
    <glyph glyph-name="otilde" unicode="&#xf5;" horiz-adv-x="1100" 
d="M612 1010q322 -23 322 -349q0 -217 -121 -411q-61 -90 -149 -148q-93 -59 -216 -59q-178 2 -260 113q-82 108 -82 268q0 221 134 401q131 180 372 185zM596 1077q-268 -6 -416 -209q-151 -198 -151 -450q0 -203 106 -320q105 -121 316 -123q280 7 421 226
q140 211 140 463q-9 407 -416 413zM921 1413q-11 -35 -35 -72q-12 -16 -29 -26q-18 -15 -39 -15q-67 2 -133 60q-33 22 -67 41q-33 16 -74 16q-70 -2 -113 -57q-43 -56 -55 -123h59q11 39 37 76q29 34 68 37q26 0 57 -17q31 -18 66 -41q34 -22 71 -39q37 -20 74 -20
q74 2 117 59q43 53 55 121h-59z" />
    <glyph glyph-name="odieresis" unicode="&#xf6;" horiz-adv-x="1100" 
d="M612 1010q322 -23 322 -349q0 -217 -121 -411q-61 -90 -149 -148q-93 -59 -216 -59q-178 2 -260 113q-82 108 -82 268q0 221 134 401q131 180 372 185zM596 1077q-268 -6 -416 -209q-151 -198 -151 -450q0 -203 106 -320q105 -121 316 -123q280 7 421 226
q140 211 140 463q-9 407 -416 413zM783 1216h91l38 211h-90zM458 1216h90l39 211h-90z" />
    <glyph glyph-name="divide" unicode="&#xf7;" horiz-adv-x="1229" 
d="M1130 477v78h-1032v-78h1032zM512 926q0 -43 33 -72q28 -33 71 -33q45 0 76 33q29 29 31 72q-2 47 -31 77q-31 29 -76 29q-43 0 -71 -29q-33 -30 -33 -77zM512 104q0 -43 33 -71q28 -33 71 -33q45 0 76 33q29 28 31 71q-2 48 -31 78q-31 29 -76 29q-43 0 -71 -29
q-33 -30 -33 -78z" />
    <glyph glyph-name="oslash" unicode="&#xf8;" horiz-adv-x="1100" 
d="M170 182q-64 101 -64 242q0 221 134 401q131 180 372 185q148 -7 228 -86zM876 879q58 -82 58 -218q0 -217 -121 -411q-61 -90 -149 -148q-93 -59 -216 -59q-159 0 -241 92zM-10 -18l43 -39l121 133q102 -99 297 -101q280 7 421 226q140 211 140 463q0 167 -84 270
l106 119l-43 39l-102 -115q-109 100 -293 100q-268 -6 -416 -209q-151 -198 -151 -450q0 -185 86 -297z" />
    <glyph glyph-name="ugrave" unicode="&#xf9;" horiz-adv-x="1063" 
d="M997 1053h-78l-104 -496q-37 -186 -151 -344q-58 -76 -136 -121q-75 -49 -172 -49q-116 0 -182 66q-65 59 -65 159q0 49 14 115q10 65 16 96l129 574h-78l-129 -576q-8 -37 -18 -102q-12 -66 -12 -109q2 -135 90 -211q86 -78 209 -80q157 2 252 68q96 66 159 182l4 -4
l-49 -221h78zM480 1497l225 -287h76l-203 287h-98z" />
    <glyph glyph-name="uacute" unicode="&#xfa;" horiz-adv-x="1063" 
d="M997 1053h-78l-104 -496q-37 -186 -151 -344q-58 -76 -136 -121q-75 -49 -172 -49q-116 0 -182 66q-65 59 -65 159q0 49 14 115q10 65 16 96l129 574h-78l-129 -576q-8 -37 -18 -102q-12 -66 -12 -109q2 -135 90 -211q86 -78 209 -80q157 2 252 68q96 66 159 182l4 -4
l-49 -221h78zM501 1210h76l225 287h-98z" />
    <glyph glyph-name="ucircumflex" unicode="&#xfb;" horiz-adv-x="1063" 
d="M997 1053h-78l-104 -496q-37 -186 -151 -344q-58 -76 -136 -121q-75 -49 -172 -49q-116 0 -182 66q-65 59 -65 159q0 49 14 115q10 65 16 96l129 574h-78l-129 -576q-8 -37 -18 -102q-12 -66 -12 -109q2 -135 90 -211q86 -78 209 -80q157 2 252 68q96 66 159 182l4 -4
l-49 -221h78zM670 1446l146 -236h86l-180 287h-95l-272 -287h90z" />
    <glyph glyph-name="udieresis" unicode="&#xfc;" horiz-adv-x="1063" 
d="M997 1053h-78l-104 -496q-37 -186 -151 -344q-58 -76 -136 -121q-75 -49 -172 -49q-116 0 -182 66q-65 59 -65 159q0 49 14 115q10 65 16 96l129 574h-78l-129 -576q-8 -37 -18 -102q-12 -66 -12 -109q2 -135 90 -211q86 -78 209 -80q157 2 252 68q96 66 159 182l4 -4
l-49 -221h78zM763 1216h91l38 211h-90zM438 1216h90l39 211h-90z" />
    <glyph glyph-name="yacute" unicode="&#xfd;" horiz-adv-x="872" 
d="M-137 -371q33 -4 84 -6q110 2 174 51q61 50 110 142l715 1237h-92l-537 -949l-176 949h-90l207 -1053l-102 -164q-35 -59 -80 -102q-47 -41 -123 -43q-35 0 -74 6zM407 1210h76l225 287h-98z" />
    <glyph glyph-name="thorn" unicode="&#xfe;" 
d="M-98 -377h78l143 649h4q39 -133 131 -213q94 -82 229 -84q267 7 406 217q139 203 139 449q0 190 -90 311q-94 123 -301 125q-133 -2 -238 -65q-102 -66 -157 -164h-4l133 614h-78zM491 43q-75 0 -135 35q-61 31 -104 84q-88 112 -88 241q0 199 119 396q59 94 147 151
q86 58 201 60q164 -2 243 -103q80 -100 80 -264q0 -207 -112 -395q-58 -90 -144 -146q-90 -59 -207 -59z" />
    <glyph glyph-name="ydieresis" unicode="&#xff;" horiz-adv-x="872" 
d="M-137 -371q33 -4 84 -6q110 2 174 51q61 50 110 142l715 1237h-92l-537 -949l-176 949h-90l207 -1053l-102 -164q-35 -59 -80 -102q-47 -41 -123 -43q-35 0 -74 6zM672 1216h91l38 211h-90zM347 1216h90l39 211h-90z" />
    <glyph glyph-name="exclam" unicode="!" horiz-adv-x="418" 
d="M86 211l-47 -211h102l47 211h-102zM192 375l148 637l96 450h-86l-96 -450l-121 -637h59z" />
    <glyph glyph-name="fraction" unicode="&#x2215;" horiz-adv-x="342" 
d="M-346 -49h82l952 1511h-82z" />
    <glyph glyph-name="fi" unicode="&#xfb01;" horiz-adv-x="797" 
d="M59 985h181l-209 -985h78l210 985h224l14 68h-223l18 82l27 98q12 47 33 88q24 41 63 65q39 25 102 25q43 -2 82 -10l15 67q-33 9 -111 11q-82 0 -133 -31t-82 -84q-31 -51 -45 -111q-16 -59 -29 -118l-18 -82h-182zM438 0h78l219 1053h-78zM700 1251h78l43 211h-78z" />
    <glyph glyph-name="fl" unicode="&#xfb02;" horiz-adv-x="797" 
d="M59 985h181l-209 -985h78l210 985h224l14 68h-223l18 82l27 98q12 47 33 88q24 41 63 65q39 25 102 25q43 -2 82 -10l15 67q-33 9 -111 11q-82 0 -133 -31t-82 -84q-31 -51 -45 -111q-16 -59 -29 -118l-18 -82h-182zM438 0h78l307 1462h-76z" />
    <glyph glyph-name="breve" unicode="&#x2d8;" horiz-adv-x="342" 
d="M96 1497q10 -242 246 -246q111 0 192 70q82 67 103 176h-68q-14 -78 -78 -127q-63 -51 -149 -51q-80 0 -127 51q-47 49 -51 127h-68z" />
    <glyph glyph-name="dotaccent" unicode="&#x2d9;" horiz-adv-x="342" 
d="M248 1216h90l39 211h-90z" />
    <glyph glyph-name="ring" unicode="&#x2da;" horiz-adv-x="342" 
d="M111 1311q0 -86 59 -144q57 -59 143 -59q88 0 146 59q55 58 57 144q-2 88 -57 145q-58 55 -146 57q-86 -2 -143 -57q-59 -57 -59 -145zM166 1311q0 63 43 104q41 41 104 43q64 -2 105 -43t43 -104q-2 -64 -43 -105q-41 -43 -105 -43q-63 0 -104 43q-43 41 -43 105z" />
    <glyph glyph-name="ogonek" unicode="&#x2db;" horiz-adv-x="342" 
d="M270 4q-65 -43 -164 -125q-43 -39 -75 -86q-33 -47 -35 -96q2 -74 49 -100q43 -29 98 -29q66 2 123 47q56 43 82 86l-24 29q-37 -51 -78 -72q-43 -23 -82 -23q-37 0 -64 15q-26 14 -26 57q0 66 69 139q68 74 197 158h-70z" />
    <glyph glyph-name="caron" unicode="&#x2c7;" horiz-adv-x="342" 
d="M649 1497h-90l-225 -236l-146 236h-86l181 -287h94z" />
    <glyph glyph-name="Lslash" unicode="&#x141;" horiz-adv-x="1024" 
d="M133 631l-190 -131v-70l172 121l-117 -551h915l17 78h-826l111 540l489 340l17 78l-490 -338l170 764h-90z" />
    <glyph glyph-name="dotlessi" unicode="&#x131;" horiz-adv-x="342" 
d="M63 0l220 1053h-78l-219 -1053h77z" />
    <glyph glyph-name="lslash" unicode="&#x142;" horiz-adv-x="342" 
d="M139 733l-153 -733h77l168 799l170 123l17 77l-170 -120l121 583h-78l-135 -649l-168 -123l-17 -78z" />
    <glyph glyph-name="minus" unicode="&#x2212;" horiz-adv-x="1229" 
d="M1130 477v78h-1032v-78h1032z" />
    </font>
</defs>
</svg>
